<svg width="28" height="28" viewBox="0 0 28 28" fill="none" xmlns="http://www.w3.org/2000/svg">
<path fill-rule="evenodd" clip-rule="evenodd" d="M14 0.5C6.54719 0.5 0.5 6.54719 0.5 14C0.5 21.4528 6.54719 27.5 14 27.5C21.4382 27.5 27.5 21.4528 27.5 14C27.5 6.54719 21.4382 0.5 14 0.5ZM22.917 6.72288C24.5277 8.68492 25.494 11.1887 25.5233 13.8975C25.1426 13.8243 21.3357 13.0483 17.4995 13.5314C17.4116 13.3411 17.3384 13.1361 17.2506 12.9311C17.0163 12.3747 16.7527 11.8037 16.4892 11.2619C20.7354 9.53417 22.6681 7.04502 22.917 6.72288ZM14 2.49132C16.9284 2.49132 19.6079 3.58948 21.6432 5.39046C21.4382 5.6833 19.6958 8.0114 15.596 9.54881C13.7072 6.07863 11.6133 3.23807 11.2912 2.79881C12.1551 2.59382 13.0629 2.49132 14 2.49132ZM9.09491 3.57484C9.40239 3.98481 11.4523 6.84003 13.3704 10.237C7.9821 11.6719 3.22344 11.6426 2.71095 11.6426C3.45769 8.06996 5.87365 5.09761 9.09491 3.57484ZM2.46204 14.0146C2.46204 13.8975 2.46204 13.7804 2.46204 13.6632C2.95987 13.6779 8.55316 13.7511 14.3075 12.0233C14.6442 12.6676 14.9517 13.3265 15.2446 13.9854C15.0981 14.0293 14.9371 14.0732 14.7907 14.1171C8.846 16.0353 5.6833 21.2771 5.41975 21.7164C3.58948 19.6811 2.46204 16.9723 2.46204 14.0146ZM14 25.538C11.3352 25.538 8.87527 24.6301 6.92786 23.1074C7.13287 22.6828 9.47561 18.173 15.9767 15.9035C16.006 15.8888 16.0206 15.8888 16.0499 15.8742C17.6752 20.0765 18.3341 23.6052 18.5098 24.6155C17.1188 25.2158 15.596 25.538 14 25.538ZM20.4279 23.5613C20.3107 22.8585 19.6958 19.4908 18.1876 15.3471C21.8042 14.776 24.9669 15.7131 25.3622 15.8449C24.8644 19.0515 23.0195 21.8189 20.4279 23.5613Z" fill="#1E201F"/>
</svg>
