<svg width="28" height="19" viewBox="0 0 28 19" fill="none" xmlns="http://www.w3.org/2000/svg">
<path fill-rule="evenodd" clip-rule="evenodd" d="M8.39413 0.999987C9.13103 0.986305 9.86688 1.06185 10.5856 1.22499C11.1908 1.35711 11.7653 1.60297 12.2788 1.94949C12.7529 2.29406 13.1281 2.75732 13.3666 3.29274C13.6408 3.95113 13.773 4.65992 13.7548 5.37286C13.7859 6.15569 13.586 6.93037 13.1799 7.60036C12.7527 8.23315 12.1622 8.73852 11.471 9.06286C12.409 9.31574 13.2259 9.89496 13.775 10.6964C14.3021 11.5455 14.567 12.5313 14.5366 13.5302C14.554 14.3267 14.3893 15.1167 14.0551 15.8399C13.7462 16.4707 13.2939 17.0205 12.7344 17.4452C12.1583 17.8653 11.5101 18.1761 10.8219 18.3621C10.1082 18.5596 9.37088 18.6587 8.63038 18.6569H0.5V0.999987H8.39413ZM7.925 8.14149C8.50399 8.16535 9.07395 7.99203 9.54163 7.64986C9.76561 7.45047 9.93984 7.20145 10.0504 6.9227C10.161 6.64395 10.2048 6.3432 10.1784 6.04449C10.1934 5.69561 10.1239 5.34827 9.97588 5.03199C9.85031 4.78017 9.65507 4.5697 9.41338 4.42561C9.16857 4.26701 8.89353 4.1609 8.60563 4.11399C8.29325 4.05348 7.97538 4.02595 7.65725 4.03186H4.18325V8.15724H7.925V8.14149ZM8.1275 15.6587C8.47765 15.6635 8.82708 15.6257 9.16813 15.5462C9.47979 15.4774 9.77537 15.3495 10.0389 15.1694C10.297 14.9894 10.5056 14.7471 10.6453 14.4651C10.8072 14.1055 10.8816 13.7127 10.8624 13.3187C10.8975 12.9598 10.8499 12.5975 10.7234 12.2598C10.5968 11.922 10.3946 11.6177 10.1323 11.3702C9.57616 10.9607 8.89468 10.7578 8.20513 10.7965H4.18325V15.6587H8.1275Z" fill="#1E201F"/>
<path fill-rule="evenodd" clip-rule="evenodd" d="M19.7825 15.5935C20.0716 15.8614 20.4122 16.0678 20.7835 16.2001C21.1548 16.3324 21.5491 16.3878 21.9425 16.363C22.5662 16.3787 23.1777 16.189 23.6829 15.823C24.0939 15.5558 24.4051 15.1603 24.5683 14.698H27.5056C27.1927 16.014 26.4284 17.1788 25.3456 17.9897C24.3069 18.6792 23.0794 19.0283 21.8334 18.9887C20.9441 19.0004 20.0615 18.8332 19.238 18.4971C18.4931 18.1865 17.8251 17.7169 17.2805 17.1212C16.738 16.4971 16.3212 15.7739 16.0531 14.9916C15.7522 14.1172 15.6049 13.1972 15.6178 12.2725C15.6123 11.3633 15.7645 10.46 16.0678 9.60286C16.4751 8.39699 17.254 7.35117 18.2927 6.61547C19.3314 5.87977 20.5764 5.49202 21.8491 5.50786C22.7888 5.48822 23.718 5.70813 24.5491 6.14686C25.3004 6.55884 25.9486 7.1358 26.4448 7.83436C26.9523 8.56736 27.3161 9.39005 27.5169 10.2587C27.737 11.1916 27.8155 12.1522 27.7498 13.1084H19.0006C18.9297 14.0067 19.21 14.8976 19.7825 15.5935ZM23.621 8.87836C23.3762 8.63347 23.0817 8.4439 22.7574 8.32242C22.4331 8.20094 22.0866 8.15037 21.7411 8.17411C21.2828 8.15663 20.8278 8.25818 20.4204 8.46886C20.0974 8.64667 19.8123 8.88591 19.5811 9.17311C19.3763 9.44239 19.2236 9.74765 19.1311 10.0731C19.0478 10.3445 18.9957 10.6246 18.9759 10.9079H24.395C24.3478 10.1695 24.0788 9.46252 23.6233 8.87949L23.621 8.87836Z" fill="#1E201F"/>
<path d="M18.2773 2.17899H25.0678V3.91486H18.2773V2.17899Z" fill="#1E201F"/>
</svg>
