<svg width="101" height="64" viewBox="0 0 101 64" fill="none" xmlns="http://www.w3.org/2000/svg">
<g clip-path="url(#clip0_50_2903)">
<path d="M97.623 18.4542L74.8191 2.54742C73.7939 1.86392 72.0541 1.42897 70.8735 1.67752L50.7415 5.21926C48.5356 2.60955 45.2424 0.931885 41.5764 0.931885C36.4191 0.931885 32.0386 4.22509 30.392 8.79208L26.3842 9.50664L4.97836 13.2969C4.72982 13.3901 4.4502 13.3901 4.20166 13.4833C4.10846 13.4833 4.01525 13.5765 3.95312 13.5765C2.92787 14.0115 2.05797 14.7882 1.46768 15.7202C0.784184 16.9319 0.349232 18.1435 0.442436 19.7591C0.442436 19.7591 0.442436 20.0076 0.53564 20.4426L6.90457 56.9164L7.43273 59.06C7.86768 60.6134 8.73758 61.6387 9.76282 62.5086C10.6949 63.1921 11.7512 63.627 12.8696 63.7202H13.1182C13.5531 63.7202 14.0502 63.627 14.2366 63.627L17.0017 63.1921L80.3803 52.1008C81.6852 51.8523 82.3687 51.1688 83.1454 50.2057L99.3939 26.9668C101.072 24.0465 100.202 20.5047 97.623 18.4542Z" fill="#BFBFBF"/>
<path d="M95.5415 20.3494L73.856 5.12612C73.1726 4.69117 72.3959 4.44263 71.4327 4.44263C71.1842 4.44263 70.9046 4.44263 70.6561 4.53583L54.3454 7.45622L53.4133 7.20768V8.85428L54.9667 8.94748C54.9667 8.94748 70.9667 6.1203 71.0599 6.1203H71.8366C72.0852 6.2135 72.7065 6.3067 73.2036 6.64845L94.5473 21.6232C95.6658 22.3999 95.8522 24.2951 94.9823 25.5067L80.1007 46.8504C79.6658 47.4407 79.1687 47.7514 78.0502 47.9688C77.3667 48.1552 16.1318 58.9048 14.9201 59.0601C13.025 59.3086 12.1551 58.4698 11.658 57.0096L5.16478 20.2562C4.97837 19.0446 5.94148 17.5844 7.30847 17.3358L29.2424 13.4523L30.0191 13.2659V11.6193L29.6774 11.7125L6.96672 15.7514C4.82303 16.1863 3.17643 18.2368 3.61138 20.4737L10.0735 57.2892C10.4153 59.2776 12.2172 60.7378 14.1124 60.7378C14.3609 60.7378 14.6405 60.7378 14.889 60.6446L78.7027 49.4601C79.7279 49.2737 80.691 48.7766 81.2813 47.8135L96.5978 26.0349C97.7784 24.1397 97.2813 21.6232 95.5415 20.3494Z" fill="white"/>
<path d="M36.6988 1.64661C27.0677 5.56117 26.2599 17.3049 26.1046 24.1398C22.3454 23.3942 19.8288 24.699 18.524 26.1903C14.6094 30.167 14.4541 38.4932 16.4735 43.9301L18.9279 42.967C17.3123 38.3379 17.3745 31.068 20.5434 27.899C22.0968 26.2835 24.3026 26.035 27.1298 26.9359L28.8386 27.4952V25.6311C28.8386 16.1864 29.9881 6.9903 37.7861 3.7903C41.4522 2.2369 44.7764 2.2369 47.7279 3.7903C51.7978 5.84078 55.0599 10.8738 56.6755 17.5534L57.2347 19.9146L58.8502 18.1126C61.056 15.7515 63.1687 14.7884 65.1881 15.2544C70.0036 16.466 73.825 25.1029 75.4405 30.167C74.0424 30.9748 72.3337 31.8757 70.9667 32.2175L71.4638 34.734C74.1667 34.1748 76.9318 32.3728 77.7395 31.7204L78.4852 31.2233L78.2366 30.2602C77.8327 28.6447 73.6075 14.4466 65.8716 12.6757C63.5104 12.1165 60.9939 12.7689 58.6949 14.7262C56.6444 8.38836 53.2269 3.47962 48.9085 1.36699C45.1492 -0.124267 41.0793 -0.124267 36.6988 1.64661ZM37.8172 40.5748V43.2777C42.9434 43.5884 51.6424 42.2214 56.1162 40.5126L54.8735 38.1515C50.7104 39.6738 42.4774 40.8233 37.8172 40.5748Z" fill="white"/>
<path d="M65.0327 44.0855C64.5046 44.0855 63.7279 44.0544 62.9822 43.7437C57.1415 40.6369 53.7551 30.4156 55.7745 25.5379C56.3648 24.202 57.2657 23.3631 58.5706 22.9282C58.5706 22.9282 59.1609 22.7728 59.4405 22.7418C60.4968 22.5864 61.4599 22.866 61.957 23.1767C67.7046 26.4699 70.8424 36.4427 68.9162 41.1961C68.1706 42.9359 66.8968 43.8991 65.1259 44.0544C65.0949 44.0855 65.0638 44.0855 65.0327 44.0855ZM64.5667 41.1961C65.4677 41.569 66.1512 40.7923 66.3376 40.202C66.5861 39.6117 66.7104 38.835 66.7104 37.5923C66.6172 34.3612 65.1259 30.3534 63.0444 27.8058C63.0444 27.8058 63.0133 27.7748 62.9822 27.7748L62.5473 27.3398L62.0502 26.8427C60.3725 25.1651 59.4716 25.4757 59.4716 25.4757C58.8502 25.6932 58.6327 26.1282 58.4463 26.4699L58.4153 26.5321C58.1356 27.0913 58.0114 27.8369 58.0114 29.0796C58.1046 33.4602 60.8075 39.4874 64.5667 41.1961ZM22.5939 35.3554C20.7298 40.5748 21.6308 48.8078 25.7628 51.169C28.3725 52.7224 30.2366 52.2253 31.2929 51.4796C34.3997 49.6156 35.2696 44.3961 35.0521 40.0777C34.9589 36.2563 33.7473 31.534 30.889 30.1359L31.0444 30.2291L30.6405 30.0738L30.3298 29.9806C26.8502 29.4214 23.992 31.3476 22.5939 35.3554ZM27.0988 48.9631C24.489 47.4097 23.4327 40.8233 25.0483 36.3495C25.7007 34.4855 27.0988 32.435 29.7706 32.7767C31.0755 33.4291 32.1318 36.1942 32.4735 39.6117C32.4735 39.8602 32.4735 40.1709 32.5667 40.4194C32.7221 44.5825 31.6657 48.4971 30.1123 49.367C29.7706 49.4291 28.8075 49.9262 27.0988 48.9631Z" fill="white"/>
</g>
<defs>
<clipPath id="clip0_50_2903">
<rect width="100.039" height="64" fill="white" transform="translate(0.287109)"/>
</clipPath>
</defs>
</svg>
