<svg width="28" height="28" viewBox="0 0 28 28" fill="none" xmlns="http://www.w3.org/2000/svg">
<path fill-rule="evenodd" clip-rule="evenodd" d="M0.5 14C0.5 20.675 5.375 26.225 11.75 27.35L11.8252 27.2898C11.8002 27.285 11.7751 27.28 11.75 27.275V17.75H8.375V14H11.75V11C11.75 7.625 13.925 5.75 17 5.75C17.975 5.75 19.025 5.9 20 6.05V9.5H18.275C16.625 9.5 16.25 10.325 16.25 11.375V14H19.85L19.25 17.75H16.25V27.275C16.2249 27.28 16.1998 27.285 16.1748 27.2898L16.25 27.35C22.625 26.225 27.5 20.675 27.5 14C27.5 6.575 21.425 0.5 14 0.5C6.575 0.5 0.5 6.575 0.5 14Z" fill="#1E201F"/>
</svg>
