<svg width="16" height="16" viewBox="0 0 16 16" fill="none" xmlns="http://www.w3.org/2000/svg">
<path d="M6.08986 13.8489V11.8104C6.08986 11.29 6.51479 10.8682 7.03896 10.8682H8.95508C9.2068 10.8682 9.44821 10.9675 9.6262 11.1442C9.80419 11.3208 9.90418 11.5605 9.90418 11.8104V13.8489C9.90259 14.0652 9.98805 14.2732 10.1416 14.4268C10.2951 14.5803 10.504 14.6666 10.722 14.6666H12.0292C12.6398 14.6682 13.2258 14.4285 13.6581 14.0005C14.0904 13.5725 14.3333 12.9913 14.3333 12.3852V6.57789C14.3333 6.08829 14.1147 5.62387 13.7364 5.30976L9.28935 1.78389C8.51578 1.16569 7.40741 1.18565 6.65693 1.8313L2.31135 5.30976C1.91517 5.61461 1.67837 6.0804 1.66667 6.57789V12.3793C1.66667 13.6425 2.69826 14.6666 3.97079 14.6666H5.2482C5.70082 14.6666 6.06867 14.3041 6.07195 13.8548L6.08986 13.8489Z" fill="black"/>
</svg>
