<svg id="Слой_1" data-name="Слой 1" xmlns="http://www.w3.org/2000/svg" viewBox="0 0 1335.724 1336.117"><defs><style>.cls-1{fill:#ececec;}.cls-13,.cls-2{fill:#1e201f;}.cls-10,.cls-2,.cls-4,.cls-5,.cls-7,.cls-8{stroke:#1e201f;}.cls-10,.cls-12,.cls-13,.cls-2,.cls-4,.cls-5,.cls-7,.cls-8{stroke-linecap:round;stroke-linejoin:round;}.cls-3,.cls-8{fill:#08a202;}.cls-10,.cls-12,.cls-15,.cls-16,.cls-17,.cls-18,.cls-4{fill:none;}.cls-11,.cls-5{fill:#696969;}.cls-6{opacity:0.3;isolation:isolate;}.cls-7,.cls-9{fill:#fff;}.cls-10{stroke-width:2px;}.cls-12,.cls-13{stroke:#08a202;}.cls-14{opacity:0.5;}.cls-15,.cls-16,.cls-17,.cls-18{stroke:#263238;}.cls-15{stroke-opacity:0.35;}.cls-16{stroke-opacity:0.25;}.cls-17{stroke-opacity:0.15;}.cls-18{stroke-opacity:0.1;}</style></defs><title>home_image</title><path class="cls-1" d="M867.61,510.371c-89.03-102.42-244.78-113.326-347.2-24.272-102.416,89.026-113.322,244.775-24.27,347.2,89.03,102.42,244.8,113.3,347.22,24.272s113.3-244.8,24.28-347.222ZM835.9,555.335c-65.6-75.469-176.98-87.523-256.83-30.805a17.505,17.505,0,0,0-2.95,25.694l34.52,39.716a17.569,17.569,0,0,0,23.32,2.816,149.116,149.116,0,0,1,211.07,42.422c38.02,59.888,25.53,138.5-26.92,186.28q-5.13,4.674-10.64,9.048c-83.61,66.339-211.5,53.383-280.3-28.236a201.871,201.871,0,0,1-46.06-154.655,192.117,192.117,0,0,0,46.71,140.769c65.6,75.469,176.99,87.524,256.83,30.806A17.5,17.5,0,0,0,787.6,793.5L753.08,753.78a17.566,17.566,0,0,0-23.32-2.816,148.888,148.888,0,0,1-197.62-24.409,150.653,150.653,0,0,1-13.45-18.013c-38.02-59.889-25.53-138.5,26.93-186.253,3.41-3.116,6.97-6.123,10.63-9.048,83.61-66.339,211.48-53.383,280.31,28.209a201.791,201.791,0,0,1,46.06,154.655,192.087,192.087,0,0,0-46.72-140.77Z" transform="translate(-14.006 -3.77)"/><path class="cls-2" d="M823.87,821.827h-292l29.2-42h233.6Z" transform="translate(-14.006 -3.77)"/><path class="cls-3" d="M834.01,765.407s-29.54-45.05-25.14-55.39,20,7.39,20,7.39-22.9-60.56-7.39-73.86,20.68,54.66,20.68,54.66,14-39.15,25.11-24.38-17,45.79-17,45.79,19.2.74,14,13.3-19.2,25.85-19.2,25.85Z" transform="translate(-14.006 -3.77)"/><path class="cls-4" d="M825.87,755.067s-17.72-25.11-8.86-30.28,13.29,10.34,13.29,10.34.74-67.94,14.78-62.77,8.86,46.52,8.86,46.52,17.72-11.81,17,5.17-24.38,31.78-24.38,31.78" transform="translate(-14.006 -3.77)"/><path class="cls-4" d="M842.13,756.547l-15.51-16.99" transform="translate(-14.006 -3.77)"/><path class="cls-4" d="M842.87,764.667l-.74-42.09" transform="translate(-14.006 -3.77)"/><path class="cls-4" d="M843.61,750.637l14.03-18.46" transform="translate(-14.006 -3.77)"/><path class="cls-2" d="M856.16,752.117H817.02l3.91,34.71h31.32Z" transform="translate(-14.006 -3.77)"/><path class="cls-3" d="M520.01,765.407s-29.54-45.05-25.14-55.39,20,7.39,20,7.39-22.93-60.58-7.42-73.86,20.68,54.66,20.68,54.66,14-39.15,25.11-24.38-17,45.79-17,45.79,19.2.74,14,13.3-19.2,25.85-19.2,25.85Z" transform="translate(-14.006 -3.77)"/><path class="cls-4" d="M514.02,755.627s-18.36-17.25-18.92-25,11.69,1.67,16.69,5-12.79-21.7-12.24-40.06,10.57-11.12,13.91-3.33,5,15,6.68,16.69,4.45-12.8,11.68-8.91c11.56,6.23-7.23,27.26-3.34,31.16s12.8-16.69,17.25-5.56-14.47,31.15-14.47,31.15" transform="translate(-14.006 -3.77)"/><path class="cls-4" d="M525.7,754.507l-13.91-41.72" transform="translate(-14.006 -3.77)"/><path class="cls-4" d="M518.47,733.367l5.56-12.79" transform="translate(-14.006 -3.77)"/><path class="cls-4" d="M507.34,741.717l15.58,3.89,7.79-5.56" transform="translate(-14.006 -3.77)"/><path class="cls-2" d="M542.16,752.117H503.02l3.91,34.71h31.32Z" transform="translate(-14.006 -3.77)"/><path class="cls-2" d="M654.54,656.827s-14.67,1.33-20-8,4-20.67-6-24.67-22,9.34-42-2-9.34-26-4-37.33,8-16.67-4.67-24-26.67-28.67-18-49.33,30.67-11.34,42-22,1.33-23.34.67-40.67,22.66-30.67,45.33-27.33,27.33,27.33,27.33,42.66,24,19.34,35.34,2,20.66-21.33,37.33-14,2.67,32,10.67,36,14.66-15.33,38.66-4,10.67,41.33-1.33,48.67c-17.46,10.69,3.13,31.42,6.44,44.11,4.85,18.55-10.08,33.39-28.44,32.56-29.33-1.34-36.67-6-42.67,2.66s12.67,10.67,10,24.67-8,19.33-20,19.33-19.33-10.66-32-5.33S660.54,660.157,654.54,656.827Z" transform="translate(-14.006 -3.77)"/><path class="cls-5" d="M631.37,752.327a72.033,72.033,0,0,0-2.25,24.5c1.25,12.75,7.75,19.5,36,23.75s47.75.75,63.5-6.75,12.18-34.41,8.09-40.58-19.84-7.42-45.34-5.17-41.25-1.75-50.5-.25S631.37,752.327,631.37,752.327Z" transform="translate(-14.006 -3.77)"/><path class="cls-6" d="M721.37,756.327s-13.5,3.5-23,6-10.5,3.5-2,4.5,24.5,0,24.5,0-22.5,10.5-34.5,13-34-5.5-36.5-7.5,10.5-2,14-3.5,1.5-3.5-11-5.5-10,9.5,1,17.5,17.5,10.5,31.75,8,33.75-8.5,40.25-20.5S721.37,756.327,721.37,756.327Z" transform="translate(-14.006 -3.77)"/><path class="cls-7" d="M625,676.277l-1.66,33.4s-3,7.76,2.4,12.74,12.36,3.51,16-2.95,3.14-21.41,4.06-27.32-6.27-12-12.18-14.21S625,676.277,625,676.277Z" transform="translate(-14.006 -3.77)"/><path class="cls-7" d="M741.94,676.277l1.66,33.4s2.95,7.76-2.4,12.74-12.37,3.51-16.06-2.95-3.14-21.41-4.06-27.32,6.28-12,12.18-14.21S741.94,676.277,741.94,676.277Z" transform="translate(-14.006 -3.77)"/><path class="cls-8" d="M670.19,626.507s.63,13.9-2.74,19.79-14.11,5.53-21.05,5.53-17.27,5.68-20.64,11.37a104.166,104.166,0,0,0-6.52,14.52l23.16,12.42s-2.53,4.85,0,12,6.31,9.9,5.26,13.48-14.74,29.05-16,33.05a37.1,37.1,0,0,0-1.47,5.68s29.26,5.69,54.73,4.85,51.79-5.9,51.79-5.9-7.79-13.68-12-21.47-8-15.79-7.16-18.53,5.69-10.1,5.48-22.95c0,0,18.73-4.84,25.68-12.63,0,0-8.21-20.42-16.63-23.79s-18.1,0-25-1.89-10.53-5.27-11.58-7.79-2.11-14.32-1.69-17.05Z" transform="translate(-14.006 -3.77)"/><path class="cls-6" d="M648.87,707.827s-7-7.5,1-8.5,19.5,7,32,10,27.5-10.5,34-8.5,2.5,12-4.5,16.5-26.5,4-37.5,3.5S657.37,717.327,648.87,707.827Z" transform="translate(-14.006 -3.77)"/><path class="cls-4" d="M657.87,712.467s3.81,3.05,14,3.05,18-4.57,25.14-3.3" transform="translate(-14.006 -3.77)"/><path class="cls-4" d="M653.55,713.227s4.31,3.56,13.2,3.81" transform="translate(-14.006 -3.77)"/><path class="cls-4" d="M642.4,690.087s.73-3.77,5.56-7.33" transform="translate(-14.006 -3.77)"/><path class="cls-4" d="M723.03,690.3s-1.69-7.28-6.26-8.81" transform="translate(-14.006 -3.77)"/><path class="cls-9" d="M683.66,677.667c16.47-.65,21.64-16.5,23.26-25.71-6.87-1.9-10.42-5.25-11.47-7.76s-2.11-14.32-1.69-17.05l-23.57-.64s.63,13.9-2.74,19.79c-1.72,3-5.38,4.38-9.47,5C659.54,657.907,665.87,678.377,683.66,677.667Z" transform="translate(-14.006 -3.77)"/><path class="cls-6" d="M694.17,636.887a55.638,55.638,0,0,1-.41-9.74l-23.57-.64a78.46,78.46,0,0,1-.37,10.73C673.96,639.947,682.35,643.187,694.17,636.887Z" transform="translate(-14.006 -3.77)"/><path class="cls-4" d="M683.66,677.667c16.47-.65,21.64-16.5,23.26-25.71-6.87-1.9-10.42-5.25-11.47-7.76s-2.11-14.32-1.69-17.05l-23.57-.64s.63,13.9-2.74,19.79c-1.72,3-5.38,4.38-9.47,5C659.54,657.907,665.87,678.377,683.66,677.667Z" transform="translate(-14.006 -3.77)"/><path class="cls-7" d="M660.19,597.827s-3-4.89-5.95-1.91,0,8.92,1.91,11.68,5.52,4.88,6.37,3.82S660.19,597.827,660.19,597.827Z" transform="translate(-14.006 -3.77)"/><path class="cls-7" d="M706.27,597.387s4.25-5.52,6.59-.21-4,13.38-7,14.87-1.49-3.4-1.28-5.1S706.27,597.387,706.27,597.387Z" transform="translate(-14.006 -3.77)"/><path class="cls-7" d="M657.87,579.127s1.49,20.18,2.55,30.37,4.86,19.33,16.54,22.33,21-1.06,24.43-7.86,5.31-19.75,5.31-30.37v-17S676.54,568.087,657.87,579.127Z" transform="translate(-14.006 -3.77)"/><path class="cls-4" d="M680.36,608.007a7.891,7.891,0,0,0,3.61,1.28,9.231,9.231,0,0,0,3.82-1.28" transform="translate(-14.006 -3.77)"/><path class="cls-4" d="M677.6,614.6s5.31,3.4,13-.43" transform="translate(-14.006 -3.77)"/><path class="cls-10" d="M669.11,597.387s4.46-.63,7,1.07" transform="translate(-14.006 -3.77)"/><path class="cls-10" d="M689.92,598.237s4.25-2.12,8.28-.21" transform="translate(-14.006 -3.77)"/><path class="cls-2" d="M659.13,595.457a33.43,33.43,0,0,0,3.39-7.83,23.649,23.649,0,0,0,1.17-11.22,35.107,35.107,0,0,0-5.82,2.72S658.43,587.037,659.13,595.457Z" transform="translate(-14.006 -3.77)"/><path class="cls-2" d="M706.69,593.767v-17.2s-2.08-.58-5.47-1.24C701.44,578.627,702.43,588.577,706.69,593.767Z" transform="translate(-14.006 -3.77)"/><path class="cls-4" d="M667.41,589.957s3.61-4.88,11.25-3.4" transform="translate(-14.006 -3.77)"/><path class="cls-4" d="M689.49,587.2a10.392,10.392,0,0,1,10.38,1.91" transform="translate(-14.006 -3.77)"/><path class="cls-7" d="M685.62,788.827s-9.75,0-27.25-17.25-28.5-31.75-42-37.75-26.5,7.25-25.75,21.5,11.25,34.25,42.5,45.75,58,6.75,60.75,6.75,16.25,6.75,24.25,7.5a62.3,62.3,0,0,0,13.25,0s2.25.25,3.5.25,2.75-1.5,2.75-1.5,2.53.66,3.53-1.09.22-2.41.22-2.41,4.28.37,5.78-2.38-.64-2.64-.64-2.64,2.93-.57,2.86-2.93a5.215,5.215,0,0,0-.5-2.55s1.75-2.75,1-5-3.5-3-6.25-1.75-16,.75-26.75,0S685.62,788.827,685.62,788.827Z" transform="translate(-14.006 -3.77)"/><path class="cls-11" d="M681.27,787.827c-4.46-1.61-12.24-5.71-22.9-16.22-17.5-17.28-28.5-31.78-42-37.78s-26.5,7.25-25.75,21.5,11.25,34.25,42.5,45.75a126.831,126.831,0,0,0,36.26,7.49C680.74,803.827,681.8,793.827,681.27,787.827Z" transform="translate(-14.006 -3.77)"/><path class="cls-6" d="M677.02,803.167c-4.93-1.87-10.69-3.87-17.15-5.84-23-7-40-15.5-51.5-28.5s-7.5-29.5-7.5-29.5l-2.65-2.4a23.341,23.341,0,0,0-7.6,18.4c.75,14.25,11.25,34.25,42.5,45.75a126.761,126.761,0,0,0,36.26,7.49,19.88,19.88,0,0,0,7.64-5.4Z" transform="translate(-14.006 -3.77)"/><path class="cls-4" d="M681.27,787.827c-4.46-1.61-12.24-5.71-22.9-16.22-17.5-17.28-28.5-31.78-42-37.78s-26.5,7.25-25.75,21.5,11.25,34.25,42.5,45.75a126.831,126.831,0,0,0,36.26,7.49C680.74,803.827,681.8,793.827,681.27,787.827Z" transform="translate(-14.006 -3.77)"/><path class="cls-9" d="M748.87,800.077a5.618,5.618,0,0,0-4.86.12" transform="translate(-14.006 -3.77)"/><path class="cls-4" d="M748.87,800.077a5.618,5.618,0,0,0-4.86.12" transform="translate(-14.006 -3.77)"/><path class="cls-9" d="M746.51,805.557a5.874,5.874,0,0,0-4,0Z" transform="translate(-14.006 -3.77)"/><path class="cls-4" d="M746.51,805.557a5.874,5.874,0,0,0-4,0" transform="translate(-14.006 -3.77)"/><path class="cls-9" d="M741.37,810.577a4.788,4.788,0,0,0-3.22-.95Z" transform="translate(-14.006 -3.77)"/><path class="cls-4" d="M741.37,810.577a4.788,4.788,0,0,0-3.22-.95" transform="translate(-14.006 -3.77)"/><path class="cls-9" d="M737.36,813.827s-1.07-1.93-2.64-1.93Z" transform="translate(-14.006 -3.77)"/><path class="cls-4" d="M737.36,813.827s-1.07-1.93-2.64-1.93" transform="translate(-14.006 -3.77)"/><path class="cls-7" d="M674.53,788.827s9.75,0,27.25-17.25,28.5-31.75,42-37.75,26.5,7.25,25.75,21.5-11.25,34.25-42.5,45.75-58,6.75-60.75,6.75-16.25,6.75-24.25,7.5a62.3,62.3,0,0,1-13.25,0s-2.25.25-3.5.25-2.75-1.5-2.75-1.5-2.53.66-3.53-1.09-.22-2.41-.22-2.41-4.29.37-5.79-2.38.64-2.64.64-2.64-2.93-.57-2.86-2.93a5,5,0,0,1,.51-2.55s-1.75-2.75-1-5,3.5-3,6.25-1.75,16,.75,26.75,0S674.53,788.827,674.53,788.827Z" transform="translate(-14.006 -3.77)"/><path class="cls-11" d="M678.87,787.827c4.45-1.61,12.23-5.71,22.9-16.22,17.5-17.25,28.5-31.75,42-37.75s26.5,7.25,25.75,21.5-11.25,34.25-42.5,45.75a126.83,126.83,0,0,1-36.27,7.49C679.4,803.827,678.35,793.827,678.87,787.827Z" transform="translate(-14.006 -3.77)"/><path class="cls-6" d="M769.53,755.327c.52-9.93-5.64-19.36-14-22.15l-3.66,2.65s12.5,7.5,9.5,22-27.5,29.5-47,37.5a222.173,222.173,0,0,1-29.82,9.33,20.885,20.885,0,0,0,6.21,3.91,126.83,126.83,0,0,0,36.27-7.49C758.28,789.577,768.78,769.577,769.53,755.327Z" transform="translate(-14.006 -3.77)"/><path class="cls-4" d="M678.87,787.827c4.45-1.61,12.23-5.71,22.9-16.22,17.5-17.25,28.5-31.75,42-37.75s26.5,7.25,25.75,21.5-11.25,34.25-42.5,45.75a126.83,126.83,0,0,1-36.27,7.49C679.4,803.827,678.35,793.827,678.87,787.827Z" transform="translate(-14.006 -3.77)"/><path class="cls-9" d="M611.28,800.077a5.618,5.618,0,0,1,4.86.12" transform="translate(-14.006 -3.77)"/><path class="cls-4" d="M611.28,800.077a5.618,5.618,0,0,1,4.86.12" transform="translate(-14.006 -3.77)"/><path class="cls-9" d="M613.63,805.557a5.874,5.874,0,0,1,4,0Z" transform="translate(-14.006 -3.77)"/><path class="cls-4" d="M613.63,805.557a5.874,5.874,0,0,1,4,0" transform="translate(-14.006 -3.77)"/><path class="cls-9" d="M618.78,810.577a4.788,4.788,0,0,1,3.22-.95Z" transform="translate(-14.006 -3.77)"/><path class="cls-4" d="M618.78,810.577a4.788,4.788,0,0,1,3.22-.95" transform="translate(-14.006 -3.77)"/><path class="cls-9" d="M622.79,813.827s1.08-2,2.64-2Z" transform="translate(-14.006 -3.77)"/><path class="cls-4" d="M622.79,813.827s1.08-2,2.64-2" transform="translate(-14.006 -3.77)"/><path class="cls-9" d="M629.24,711.9s-3.69-.74-10.33,2.58-12.74,9.23-16.25,11.26-5.9,3.33-9,.19-9.78-11.82-16.06-11.63-8.49,8.86-7.38,10.7,2.77,2.22,4.06.74,2.95-4.43,4.61-3.32.74,6.28-1.84,7.2-9.6,5.35-7.94,7.94,11.08,6.09,18.09,6.64,15.69-4.24,21.41-5.17,21.23-2,28.42-7.93a15.1,15.1,0,0,0,5.36-14.22" transform="translate(-14.006 -3.77)"/><path class="cls-4" d="M629.24,711.9s-3.69-.74-10.33,2.58-12.74,9.23-16.25,11.26-5.9,3.33-9,.19-9.78-11.82-16.06-11.63-8.49,8.86-7.38,10.7,2.77,2.22,4.06.74,2.95-4.43,4.61-3.32.74,6.28-1.84,7.2-9.6,5.35-7.94,7.94,11.08,6.09,18.09,6.64,15.69-4.24,21.41-5.17,21.23-2,28.42-7.93a15.1,15.1,0,0,0,5.36-14.22" transform="translate(-14.006 -3.77)"/><path class="cls-7" d="M569.99,733.677s-.73-8.12-3.13-8.68-2.77,5-2.4,10.34,3.32,6.83,5.16,5.35S569.99,733.677,569.99,733.677Z" transform="translate(-14.006 -3.77)"/><path class="cls-7" d="M575.76,735.967s.7-8.13-1.56-9.1-3.6,4.42-4.19,9.75,2.07,7.31,4.15,6.19S575.76,735.967,575.76,735.967Z" transform="translate(-14.006 -3.77)"/><path class="cls-7" d="M580.74,737.827s.71-8.12-1.56-9.09-3.6,4.42-4.18,9.75,2.06,7.31,4.14,6.18S580.74,737.827,580.74,737.827Z" transform="translate(-14.006 -3.77)"/><path class="cls-9" d="M593.8,743.827a24.219,24.219,0,0,1-10.7,2.22,39.677,39.677,0,0,1-.37-4.62c0-2,4.24-10.33,10.52-9.78" transform="translate(-14.006 -3.77)"/><path class="cls-4" d="M593.8,743.827a24.219,24.219,0,0,1-10.7,2.22,39.677,39.677,0,0,1-.37-4.62c0-2,4.24-10.33,10.52-9.78" transform="translate(-14.006 -3.77)"/><path class="cls-7" d="M586.03,741s2.35-6.36.41-7.84-4.33,2.46-6,6.6.44,6.56,2.64,6.29S586.03,741,586.03,741Z" transform="translate(-14.006 -3.77)"/><path class="cls-9" d="M737.69,711.9s3.69-.74,10.34,2.58,12.73,9.23,16.24,11.26,5.91,3.33,9.05.19,9.78-11.82,16.05-11.63,8.49,8.86,7.39,10.7-2.77,2.22-4.06.74-3-4.43-4.62-3.32-.74,6.28,1.85,7.2,9.6,5.35,7.93,7.94-11.07,6.09-18.08,6.64-15.69-4.24-21.42-5.17-21.22-2-28.42-7.93a15.06,15.06,0,0,1-5.35-14.22" transform="translate(-14.006 -3.77)"/><path class="cls-4" d="M737.69,711.9s3.69-.74,10.34,2.58,12.73,9.23,16.24,11.26,5.91,3.33,9.05.19,9.78-11.82,16.05-11.63,8.49,8.86,7.39,10.7-2.77,2.22-4.06.74-3-4.43-4.62-3.32-.74,6.28,1.85,7.2,9.6,5.35,7.93,7.94-11.07,6.09-18.08,6.64-15.69-4.24-21.42-5.17-21.22-2-28.42-7.93a15.06,15.06,0,0,1-5.35-14.22" transform="translate(-14.006 -3.77)"/><path class="cls-7" d="M796.94,733.677s.74-8.12,3.14-8.68,2.77,5,2.4,10.34-3.32,6.83-5.17,5.35S796.94,733.677,796.94,733.677Z" transform="translate(-14.006 -3.77)"/><path class="cls-7" d="M791.18,735.967s-.71-8.13,1.55-9.1,3.61,4.42,4.19,9.75-2.05,7.31-4.14,6.21S791.18,735.967,791.18,735.967Z" transform="translate(-14.006 -3.77)"/><path class="cls-7" d="M786.19,737.827s-.7-8.12,1.56-9.09,3.61,4.42,4.19,9.75-2.07,7.31-4.14,6.18S786.19,737.827,786.19,737.827Z" transform="translate(-14.006 -3.77)"/><path class="cls-9" d="M773.13,743.827a24.251,24.251,0,0,0,10.74,2.22,39.677,39.677,0,0,0,.37-4.62c0-2-4.25-10.33-10.53-9.78" transform="translate(-14.006 -3.77)"/><path class="cls-4" d="M773.13,743.827a24.251,24.251,0,0,0,10.74,2.22,39.677,39.677,0,0,0,.37-4.62c0-2-4.25-10.33-10.53-9.78" transform="translate(-14.006 -3.77)"/><path class="cls-7" d="M780.87,741s-2.35-6.36-.41-7.84,4.32,2.46,6,6.6-.44,6.56-2.64,6.29S780.87,741,780.87,741Z" transform="translate(-14.006 -3.77)"/><path class="cls-12" d="M701.87,566.827c-2.35-3.41-6-.09-6.94.93-1-1-4.59-4.34-6.93-.93-2.55,3.71,6.85,11.44,6.93,11.4S704.39,570.537,701.87,566.827Z" transform="translate(-14.006 -3.77)"/><path class="cls-12" d="M678.52,569.887a27.194,27.194,0,0,0-11.44-8.91c-7.32-2.86-2.55-8.58.63-7a44.729,44.729,0,0,0,6.36,2.54s-8.27-6.68-8.58-12.4,8.58,1.59,8.58,1.59-10.81-14.88-7.31-17.48,6.67,2.23,8.9,6.36a80.534,80.534,0,0,1,4.13,9.54s-.63-10.49,2.87-7.31,1.27,19.08,1.27,19.08,4.77-13,7-6S679.48,568.927,678.52,569.887Z" transform="translate(-14.006 -3.77)"/><path class="cls-12" d="M678.52,569.887s5.09-15.27-5.4-35" transform="translate(-14.006 -3.77)"/><path class="cls-12" d="M661.07,468.517a20.089,20.089,0,0,0-10.37,2.79c-5,3-6.2-2.33-3.84-3.5a34.26,34.26,0,0,0,4.34-2.62s-7.64,1.9-11.16-.47,4.77-4.36,4.77-4.36-13.65-.28-13.59-3.48,4.29-3,7.73-2.42a59.916,59.916,0,0,1,7.48,1.81s-6.48-4.31-3.05-5,11.84,7.76,11.84,7.76-5.57-8.63-.45-6.83S660.93,467.527,661.07,468.517Z" transform="translate(-14.006 -3.77)"/><path class="cls-12" d="M661.07,468.517S654.33,458.7,638,456.1" transform="translate(-14.006 -3.77)"/><path class="cls-12" d="M724.23,531.7a3.966,3.966,0,0,0-.84.11,3.671,3.671,0,0,0,.93-1.455,3.65,3.65,0,0,0-.49-3.323,3.647,3.647,0,0,0-1.31-1.122,3.691,3.691,0,0,0-1.69-.391,3.657,3.657,0,0,0-3.58,3.191,3.639,3.639,0,0,0-2.46-1.988,3.646,3.646,0,0,0-3.08.673,3.627,3.627,0,0,0-1.41,2.829,3.615,3.615,0,0,0,.34,1.584,3.676,3.676,0,0,0,.99,1.282,3.626,3.626,0,0,0-1.91,2.388,3.589,3.589,0,0,0-.04,1.564,3.644,3.644,0,0,0,3.28,2.948,3.668,3.668,0,0,0,1.55-.2,3.737,3.737,0,0,0,1.32-.836,3.64,3.64,0,0,0,7.26-.13,3.913,3.913,0,0,0,1.14.2,3.66,3.66,0,1,0,0-7.32Z" transform="translate(-14.006 -3.77)"/><path class="cls-12" d="M718,537.107a2.53,2.53,0,1,0-2.53-2.53A2.528,2.528,0,0,0,718,537.107Z" transform="translate(-14.006 -3.77)"/><path class="cls-12" d="M651.05,560.487a3.852,3.852,0,0,0-.85.11,3.676,3.676,0,0,0,.46-4.784,3.753,3.753,0,0,0-1.32-1.125,3.639,3.639,0,0,0-3.36.036,3.714,3.714,0,0,0-1.3,1.154,3.639,3.639,0,0,0-.61,1.619,3.654,3.654,0,0,0-6.15-.69,3.69,3.69,0,0,0-.79,2.28,3.586,3.586,0,0,0,.35,1.543,3.662,3.662,0,0,0,.97,1.247,3.626,3.626,0,0,0-1.91,2.388,3.589,3.589,0,0,0-.04,1.564,3.644,3.644,0,0,0,3.28,2.948,3.668,3.668,0,0,0,1.55-.2,3.737,3.737,0,0,0,1.32-.836,3.637,3.637,0,0,0,6.12,2.253,1.638,1.638,0,0,1,2.28-2.183,3.66,3.66,0,1,0,0-7.32Z" transform="translate(-14.006 -3.77)"/><path class="cls-12" d="M644.81,565.9a2.53,2.53,0,1,0-2.53-2.53A2.528,2.528,0,0,0,644.81,565.9Z" transform="translate(-14.006 -3.77)"/><path class="cls-12" d="M649.05,515.007a.462.462,0,1,1,0-.676,2.281,2.281,0,0,0,.18-.894,2.269,2.269,0,0,0-3.75-1.822,2.278,2.278,0,0,0-.78,1.532,2.366,2.366,0,0,0-.62-.791,2.326,2.326,0,0,0-.91-.443,2.267,2.267,0,0,0-1.92.421,2.225,2.225,0,0,0-.63.782,2.1,2.1,0,0,0-.24.98,2.251,2.251,0,0,0,.83,1.781,2.276,2.276,0,0,0-.92.82,2.237,2.237,0,0,0-.34,1.18,2.279,2.279,0,0,0,3.92,1.65,2.235,2.235,0,0,0,.76,1.454,2.269,2.269,0,0,0,3.76-1.544,2.121,2.121,0,0,0,.71.13,2.28,2.28,0,0,0,0-4.56Z" transform="translate(-14.006 -3.77)"/><path class="cls-12" d="M645.17,518.377a1.58,1.58,0,1,0-1.58-1.58A1.581,1.581,0,0,0,645.17,518.377Z" transform="translate(-14.006 -3.77)"/><path class="cls-12" d="M628.44,584.827a2.194,2.194,0,0,0-.52.07,2.245,2.245,0,0,0,.7-1.64A2.276,2.276,0,0,0,626.5,581a2.284,2.284,0,0,0-1.59.51,2.309,2.309,0,0,0-.81,1.455,2.294,2.294,0,0,0-1.53-1.222,2.28,2.28,0,0,0-1-.006,2.308,2.308,0,0,0-.91.427,2.217,2.217,0,0,0-.63.777,2.079,2.079,0,0,0-.24.974,2.214,2.214,0,0,0,.2.982.709.709,0,0,1-.14,1.411,2.211,2.211,0,0,0-.43.871,2.268,2.268,0,0,0-.03.97,2.411,2.411,0,0,0,.39.892,2.216,2.216,0,0,0,.72.651,2.259,2.259,0,0,0,.92.29,2.3,2.3,0,0,0,.97-.123,2.205,2.205,0,0,0,.82-.514,2.235,2.235,0,0,0,.76,1.454,2.269,2.269,0,0,0,3.76-1.544,2.173,2.173,0,0,0,.71.13,2.28,2.28,0,0,0,0-4.56Z" transform="translate(-14.006 -3.77)"/><path class="cls-12" d="M624.56,588.2a1.58,1.58,0,1,0-1.58-1.58A1.581,1.581,0,0,0,624.56,588.2Z" transform="translate(-14.006 -3.77)"/><path class="cls-12" d="M672.7,477.117a2.194,2.194,0,0,0-.52.07,2.327,2.327,0,0,0,.58-.9,2.278,2.278,0,0,0,.1-1.068,2.394,2.394,0,0,0-.41-.994,2.993,2.993,0,0,1-5.15-.044,2.277,2.277,0,0,0-1.5-.167,2.213,2.213,0,0,0-1.27.809,2.249,2.249,0,0,0-.49,1.428,2.125,2.125,0,0,0,.22.957,2.148,2.148,0,0,0,.6.773,2.263,2.263,0,0,0-1.05,1.064,2.318,2.318,0,0,0-.17,1.489,2.29,2.29,0,0,0,2.22,1.757,2.218,2.218,0,0,0,.86-.171,2.3,2.3,0,0,0,.73-.489,2.277,2.277,0,0,0,2.3,2.021,2.3,2.3,0,0,0,1.52-.62,2.262,2.262,0,0,0,.7-1.481,2.4,2.4,0,0,0,.71.13,2.28,2.28,0,0,0,0-4.56Z" transform="translate(-14.006 -3.77)"/><path class="cls-12" d="M668.82,480.487a1.58,1.58,0,1,0-1.58-1.58A1.581,1.581,0,0,0,668.82,480.487Z" transform="translate(-14.006 -3.77)"/><path class="cls-12" d="M721.55,491.507a.462.462,0,1,1,0-.676,2.281,2.281,0,0,0,.18-.894,2.269,2.269,0,0,0-3.75-1.822,2.278,2.278,0,0,0-.78,1.532,2.366,2.366,0,0,0-.62-.791,2.326,2.326,0,0,0-.91-.443,2.267,2.267,0,0,0-1.92.421,2.225,2.225,0,0,0-.63.782,2.1,2.1,0,0,0-.24.98,2.251,2.251,0,0,0,.83,1.781,2.276,2.276,0,0,0-.92.82,2.247,2.247,0,0,0,.04,2.439,2.283,2.283,0,0,0,3.49.371,2.238,2.238,0,0,0,.76,1.454,2.269,2.269,0,0,0,3.76-1.544,2.121,2.121,0,0,0,.71.13,2.28,2.28,0,0,0,0-4.56Z" transform="translate(-14.006 -3.77)"/><path class="cls-12" d="M717.67,494.877a1.58,1.58,0,1,0-1.58-1.58A1.581,1.581,0,0,0,717.67,494.877Z" transform="translate(-14.006 -3.77)"/><path class="cls-12" d="M691.87,520.827a64.8,64.8,0,0,1,4.67-10c2.33-3.67,10.66-4.33,10.66-4.33s-4.33,7-6.33,10.33S691.87,520.827,691.87,520.827Z" transform="translate(-14.006 -3.77)"/><path class="cls-12" d="M691.87,520.827s6.33-9,13.67-13.33" transform="translate(-14.006 -3.77)"/><path class="cls-12" d="M595.74,553.267a65.965,65.965,0,0,1,10.93-1.53c4.34,0,9.45,6.58,9.45,6.58s-8.24.18-12.12.32S595.74,553.267,595.74,553.267Z" transform="translate(-14.006 -3.77)"/><path class="cls-12" d="M595.74,553.267s11,.41,18.63,4.19" transform="translate(-14.006 -3.77)"/><path class="cls-12" d="M744.1,545.657s-1.62-7.53-5.15-7.09-.68,9.3-.68,9.3-4.64,1.32-4.42,3.31,3.52.33,6.38-.11c0,0-1.15,5.17,1.94,6s2.5-6.82,2.5-6.82,6.9,1.41,8.84-1.68C755.76,545.017,746.97,545.207,744.1,545.657Z" transform="translate(-14.006 -3.77)"/><path class="cls-13" d="M744.1,543.337s-6.44,9.79-6.06,10.82,7.35-8.5,8.51-9.66S745.65,541.657,744.1,543.337Z" transform="translate(-14.006 -3.77)"/><path class="cls-12" d="M746.55,544.5s4.25-3.87,6.31-2.32-.38,1.8-.64,1.29" transform="translate(-14.006 -3.77)"/><path class="cls-12" d="M744.49,542.557s1.16-5.67-.13-6.83-1.81.39-.9,1.29" transform="translate(-14.006 -3.77)"/><path class="cls-12" d="M682.87,498.387c-3.44-5-8.76-.13-10.19,1.36-1.44-1.49-6.76-6.38-10.2-1.36-3.75,5.45,10.07,16.81,10.2,16.76S686.6,503.827,682.87,498.387Z" transform="translate(-14.006 -3.77)"/><path class="cls-12" d="M635.14,478.887c-3.56-2.12-5.45,2.41-5.92,3.73-1.31-.51-6-2-6.69,2.06-.76,4.43,11,7.53,11.07,7.46S639,481.187,635.14,478.887Z" transform="translate(-14.006 -3.77)"/><path class="cls-12" d="M601.95,520.127c-4.13-.31-3.81,4.59-3.63,6-1.4.13-6.26.86-5.07,4.82,1.29,4.31,13.21,1.83,13.23,1.74S606.43,520.467,601.95,520.127Z" transform="translate(-14.006 -3.77)"/><path class="cls-12" d="M733.04,584.907c3.28-2.53-.23-6-1.29-6.88,1-1,4.09-4.82.56-7-3.84-2.35-11.06,7.45-11,7.53S729.48,587.647,733.04,584.907Z" transform="translate(-14.006 -3.77)"/><path class="cls-12" d="M713.92,517.607a34.911,34.911,0,0,1,7.45-5.28" transform="translate(-14.006 -3.77)"/><path class="cls-12" d="M695.37,557.827s2.34-19.91,13.3-34.41" transform="translate(-14.006 -3.77)"/><path class="cls-12" d="M665.81,566.277a41.989,41.989,0,0,1,2.56,4.55" transform="translate(-14.006 -3.77)"/><path class="cls-12" d="M628.58,542.647a16.856,16.856,0,0,0,4.79,2.68c7.91,3,18.95,6,27.54,14.82" transform="translate(-14.006 -3.77)"/><path class="cls-12" d="M624.87,533.327a9.148,9.148,0,0,0,1,6.13" transform="translate(-14.006 -3.77)"/><path class="cls-12" d="M717.28,481.387a27.345,27.345,0,0,0,6.09-8.06" transform="translate(-14.006 -3.77)"/><path class="cls-12" d="M687.65,510.607a41.715,41.715,0,0,1,6.72-11.28c5.69-6.77,11.82-10,17.27-13.65" transform="translate(-14.006 -3.77)"/><path class="cls-12" d="M684.37,526.827a38.228,38.228,0,0,1,.65-7" transform="translate(-14.006 -3.77)"/><path class="cls-12" d="M715.55,567.407c4.16-2.1,10-3.68,17.82-3.08,19.5,1.5,28.5,7.5,37-4" transform="translate(-14.006 -3.77)"/><path class="cls-12" d="M706.87,574.827a17.487,17.487,0,0,1,3.24-3.72" transform="translate(-14.006 -3.77)"/><path class="cls-12" d="M748.33,522.177h-2.67c-1.61,0-4.55-1.87-3.21-3.48s5.88,2.14,5.88,2.14l-4-12.57,8.56-4,3.48,11.77s-5.35-2.14-5.89.26,3.48,2.14,5.89,1.07" transform="translate(-14.006 -3.77)"/><path class="cls-12" d="M745.12,510.937l8.29-4.01" transform="translate(-14.006 -3.77)"/><path class="cls-12" d="M766.72,518.177h-1.76c-1.07,0-3-1.24-2.13-2.3s3.89,1.41,3.89,1.41l-2.65-8.31,5.66-2.65,2.3,7.78s-3.54-1.41-3.89.18,2.3,1.41,3.89.7" transform="translate(-14.006 -3.77)"/><path class="cls-12" d="M764.6,510.747l5.48-2.65" transform="translate(-14.006 -3.77)"/><path class="cls-12" d="M611.22,509.177h-1.76c-1.07,0-3-1.24-2.13-2.3s3.89,1.41,3.89,1.41l-2.65-8.31,5.66-2.65,2.3,7.78s-3.54-1.41-3.89.18,2.3,1.41,3.89.7" transform="translate(-14.006 -3.77)"/><path class="cls-12" d="M609.1,501.747l5.48-2.65" transform="translate(-14.006 -3.77)"/><path class="cls-12" d="M778.87,537.287s7.24-2.18,6.09-6.46c-1-3.62-4.38,0-4.38,0s2.1-3.4-1-5-4,2.78-4,2.78-.62-4.06-3.44-2.19,3.13,11.89,3.13,11.89Z" transform="translate(-14.006 -3.77)"/><path class="cls-12" d="M769.59,552.737a38.461,38.461,0,0,0,5.63-14.4l3.08-9.52" transform="translate(-14.006 -3.77)"/><path class="cls-12" d="M773.34,545.227a8.026,8.026,0,0,0-1.25-5.64,22.111,22.111,0,0,0-4.06-5s-.94,3.44-.32,5.63S773.34,545.227,773.34,545.227Z" transform="translate(-14.006 -3.77)"/><path class="cls-12" d="M772.41,547.727a6.479,6.479,0,0,1,4.38-1.56h5.94S775.22,552.107,772.41,547.727Z" transform="translate(-14.006 -3.77)"/><path class="cls-12" d="M774.26,530.427l.94,7.4,5.25-3.9" transform="translate(-14.006 -3.77)"/><path class="cls-12" d="M610.34,569.557s-4.74-5.88-8.27-3.21c-3,2.27,1.65,4.06,1.65,4.06s-3.95-.66-4.22,2.83,4.07,2.59,4.07,2.59-3.53,2.11-.73,4,9.84-7.38,9.84-7.38Z" transform="translate(-14.006 -3.77)"/><path class="cls-12" d="M628.13,572.307a38.393,38.393,0,0,0-15.45.2l-10,.74" transform="translate(-14.006 -3.77)"/><path class="cls-12" d="M619.76,571.657a7.991,7.991,0,0,0-4.75,3.28,22.2,22.2,0,0,0-3.1,5.65s3.54-.42,5.33-1.83S619.76,571.657,619.76,571.657Z" transform="translate(-14.006 -3.77)"/><path class="cls-12" d="M622.43,571.587a6.472,6.472,0,0,1-3.1-3.47c-1.05-2.61-2.23-5.51-2.23-5.51S625.43,567.327,622.43,571.587Z" transform="translate(-14.006 -3.77)"/><path class="cls-12" d="M605.71,576.377l6.5-3.66-5.59-3.39" transform="translate(-14.006 -3.77)"/><path class="cls-3" d="M658.71,544.417a21.433,21.433,0,0,0-1-2c-1.79-3.29-4.42-6.18-8.55-5.59-7,1,6,12,8.34,12.33C660.38,549.567,659.64,546.637,658.71,544.417Z" transform="translate(-14.006 -3.77)"/><path class="cls-3" d="M653.38,503.087a15.214,15.214,0,0,0-1-2c-1.8-3.3-4.42-6.18-8.55-5.59-7,1,6,12,8.34,12.33C655.05,508.237,654.31,505.3,653.38,503.087Z" transform="translate(-14.006 -3.77)"/><path class="cls-3" d="M723.74,548.477c-.89.26-1.67.56-2.1.73-3.48,1.4-6.65,3.68-6.54,7.85.19,7.07,12.61-4.58,13.21-6.87C729.04,547.417,726.04,547.827,723.74,548.477Z" transform="translate(-14.006 -3.77)"/><path class="cls-3" d="M732.74,511.147a21.831,21.831,0,0,0-2.1.73c-3.48,1.4-6.65,3.67-6.54,7.84.19,7.07,12.61-4.58,13.21-6.86C738.04,510.077,735.04,510.477,732.74,511.147Z" transform="translate(-14.006 -3.77)"/><path class="cls-3" d="M783.99,508.827a19.142,19.142,0,0,0-2.09.73c-3.48,1.4-6.65,3.67-6.54,7.84.19,7.07,12.61-4.58,13.21-6.86C789.3,507.727,786.3,508.127,783.99,508.827Z" transform="translate(-14.006 -3.77)"/><path class="cls-3" d="M643.46,542.827c-.14-.341-.3-.675-.47-1-.87-1.6-2.15-3-4.17-2.73-3.42.49,2.93,5.86,4.07,6C644.28,545.337,643.92,543.907,643.46,542.827Z" transform="translate(-14.006 -3.77)"/><path class="cls-3" d="M619.05,516.887c-.34-.29-.68-.53-.86-.66-1.51-1.05-3.28-1.73-4.95-.57-2.84,2,5.24,3.92,6.33,3.56C620.87,518.767,619.94,517.657,619.05,516.887Z" transform="translate(-14.006 -3.77)"/><path class="cls-3" d="M655.13,529.157c-.14-.342-.3-.676-.47-1-.88-1.61-2.16-3-4.17-2.73-3.42.49,2.93,5.85,4.07,6C655.94,531.677,655.58,530.237,655.13,529.157Z" transform="translate(-14.006 -3.77)"/><path class="cls-3" d="M596.26,506.637a9.288,9.288,0,0,0-.47-1c-.87-1.61-2.15-3-4.17-2.73-3.42.49,2.93,5.86,4.07,6C597.08,509.147,596.72,507.717,596.26,506.637Z" transform="translate(-14.006 -3.77)"/><path class="cls-3" d="M612.17,541.667a9.751,9.751,0,0,0-1-.53c-1.64-.8-3.5-1.2-5,.2-2.5,2.39,5.79,3.07,6.81,2.54C614.3,543.237,613.17,542.277,612.17,541.667Z" transform="translate(-14.006 -3.77)"/><path class="cls-3" d="M652.13,489.827c-.14-.341-.3-.675-.47-1-.88-1.6-2.16-3-4.17-2.73-3.42.49,2.93,5.86,4.07,6C652.94,492.337,652.58,490.907,652.13,489.827Z" transform="translate(-14.006 -3.77)"/><path class="cls-3" d="M689.74,530.467c-.27.35-.5.69-.62.88-1,1.54-1.61,3.35-.38,5,2.08,2.76,3.72-5.39,3.31-6.47C691.55,528.537,690.47,529.547,689.74,530.467Z" transform="translate(-14.006 -3.77)"/><path class="cls-3" d="M705.74,551.467c-.27.35-.5.69-.62.88-1,1.54-1.61,3.35-.38,5,2.08,2.76,3.72-5.39,3.31-6.47C707.55,549.537,706.47,550.547,705.74,551.467Z" transform="translate(-14.006 -3.77)"/><path class="cls-3" d="M728.02,496.827a9.911,9.911,0,0,0-1,.33c-1.71.65-3.28,1.73-3.27,3.76,0,3.45,6.2-2.1,6.52-3.21C730.62,496.307,729.16,496.467,728.02,496.827Z" transform="translate(-14.006 -3.77)"/><path class="cls-3" d="M689.4,484.257c-.32.31-.6.61-.75.78-1.21,1.37-2.1,3.06-1.13,4.85,1.63,3,4.49-4.76,4.26-5.88C691.49,482.627,690.26,483.457,689.4,484.257Z" transform="translate(-14.006 -3.77)"/><path class="cls-3" d="M620.45,554.827a9.007,9.007,0,0,0,.82.7c1.45,1.13,3.19,1.9,4.92.83,2.93-1.81-5-4.19-6.14-3.88C618.7,552.827,619.6,554,620.45,554.827Z" transform="translate(-14.006 -3.77)"/><path class="cls-3" d="M745.39,497.2h-1.08c-1.83.11-3.65.67-4.25,2.61-1,3.3,6.55-.15,7.18-1.11C748.01,497.527,746.57,497.247,745.39,497.2Z" transform="translate(-14.006 -3.77)"/><g class="cls-14"><path class="cls-15" d="M928.16,671.827c0,136.059-110.27,246.357-246.29,246.357s-246.286-110.3-246.286-246.357S545.85,425.47,681.87,425.47,928.16,535.768,928.16,671.827Z" transform="translate(-14.006 -3.77)"/><path class="cls-16" d="M1037.67,671.827c0,196.558-159.3,355.9-355.8,355.9s-355.8-159.342-355.8-355.9,159.3-355.9,355.8-355.9S1037.67,475.269,1037.67,671.827Z" transform="translate(-14.006 -3.77)"/><path class="cls-17" d="M1176.48,671.827c0,273.247-221.44,494.76-494.61,494.76S187.256,945.074,187.256,671.827,408.7,177.07,681.87,177.07,1176.48,398.58,1176.48,671.827Z" transform="translate(-14.006 -3.77)"/><path class="cls-18" d="M1349.23,671.827c0,368.68-298.79,667.56-667.36,667.56S14.506,1040.507,14.506,671.827,313.3,4.27,681.87,4.27,1349.23,303.145,1349.23,671.827Z" transform="translate(-14.006 -3.77)"/></g></svg>