<svg width="161" height="64" viewBox="0 0 161 64" fill="none" xmlns="http://www.w3.org/2000/svg">
<path d="M10.4646 16.2074H0V55.8325C3.63709 54.5563 7.08275 53.4078 10.4008 52.4506V16.2074H10.4646ZM0 0H10.5922V9.25224H0V0ZM26.7996 37.5832C26.7996 28.2672 31.8405 24.2473 37.7747 24.2473C43.7089 24.2473 45.6869 27.8205 45.6869 34.0738V47.5374C49.3878 47.7288 52.8973 48.1117 56.2153 48.6859V32.0957C56.2153 21.5673 50.7916 15.3141 41.2203 15.3141C33.6909 15.3141 29.2881 18.9511 26.8634 24.2473V16.2074H16.3988V50.8554C20.0359 49.9621 23.5454 49.2602 26.7996 48.7497V37.5832ZM102.987 16.2074H92.65L80.2712 51.8126L68.4666 16.2074H57.4277L69.998 52.2592C76.1236 54.2373 81.9302 56.4706 87.992 58.5125L102.987 16.2074ZM105.795 0H116.387V9.25224H105.795V0ZM116.323 16.2074H105.922V63.0429C109.24 63.5533 112.686 63.8724 116.323 64V16.2074ZM142.102 15.3141C129.531 15.3141 122.385 21.0568 121.619 30.6281H131.446C131.637 25.8425 135.21 23.0987 141.591 23.0987C147.972 23.0987 149.823 25.9063 149.823 30.2453V34.6481C148.483 34.5842 146.696 34.4566 145.228 34.4566C127.681 34.4566 120.343 40.4546 120.343 51.0469C120.343 57.4277 123.916 61.9581 130.042 63.3619C134.7 62.7876 139.741 61.8943 145.164 60.5543L145.93 60.3629C147.206 60.0439 148.483 59.661 149.823 59.342C151.29 58.8953 152.822 58.4487 154.353 58.002C156.267 57.4277 158.245 56.7258 160.287 56.0239V30.1815C160.223 21.6949 156.012 15.3141 142.102 15.3141ZM149.823 44.5384C149.823 51.6849 144.463 55.8963 138.018 55.8963C133.615 55.8963 131.063 53.5354 131.063 49.4516C131.063 43.6451 136.04 41.2841 145.547 41.2841C147.079 41.2841 148.546 41.2841 149.886 41.348L149.823 44.5384Z" fill="#BFBFBF"/>
</svg>
