<svg width="466" height="466" viewBox="0 0 466 466" fill="none" xmlns="http://www.w3.org/2000/svg">
<path opacity="0.2" d="M261.379 378.262L259.665 378.075C258.87 378.026 258.119 377.694 257.547 377.141C256.975 376.587 256.618 375.848 256.542 375.056C255.61 365.204 247.11 358.28 236.038 357.021C226.075 355.903 214.602 360.302 207.072 367.833C206.134 368.827 204.989 369.602 203.719 370.105C202.448 370.608 201.082 370.824 199.718 370.74L191.237 369.808C190.071 369.714 188.966 369.247 188.085 368.476C187.204 367.706 186.594 366.674 186.344 365.531C184.35 356.919 176.633 350.367 166.66 349.248C155.597 348.009 143.146 352.594 135.783 361.514C135.2 362.234 134.451 362.803 133.601 363.173C132.751 363.543 131.824 363.703 130.899 363.639L129.194 363.443C128.791 363.42 128.391 363.528 128.055 363.752C127.719 363.975 127.464 364.302 127.33 364.682L125.923 368.793C125.807 369.065 125.804 369.371 125.914 369.645C126.024 369.919 126.238 370.139 126.51 370.256L128.448 371.188C129.196 371.563 129.791 372.186 130.131 372.951C130.471 373.716 130.535 374.575 130.312 375.382C127.227 388.719 134.972 400.275 148.663 401.804C161.842 403.286 176.092 394.944 182.42 382.679C182.949 381.688 183.716 380.843 184.651 380.22C185.586 379.598 186.661 379.216 187.779 379.11C190.8 378.857 193.841 379.173 196.745 380.042C197.675 380.316 198.466 380.931 198.962 381.764C199.458 382.597 199.622 383.586 199.42 384.534C197.146 397.284 204.835 408.114 218.06 409.595C231.732 411.133 246.542 402.139 252.497 389.091C252.928 388.205 253.558 387.429 254.337 386.824C255.116 386.22 256.024 385.803 256.99 385.606L259.422 385.13C259.761 385.079 260.079 384.937 260.345 384.721C260.61 384.505 260.813 384.221 260.932 383.9L262.339 379.79C262.406 379.627 262.434 379.45 262.418 379.274C262.403 379.098 262.347 378.928 262.253 378.779C262.159 378.629 262.031 378.504 261.879 378.414C261.727 378.325 261.556 378.272 261.379 378.262ZM149.828 398.356C137.125 396.93 130.303 385.531 134.618 372.94C138.933 360.349 152.773 351.28 165.477 352.706C178.18 354.132 185.049 365.531 180.696 378.113C176.344 390.695 162.531 399.828 149.828 398.356ZM184.918 376.053C185.095 375.326 185.244 374.599 185.356 373.881C185.424 373.584 185.595 373.321 185.839 373.138C186.084 372.955 186.385 372.865 186.689 372.884L201.899 374.59C202.034 374.602 202.163 374.65 202.273 374.728C202.384 374.805 202.473 374.91 202.531 375.032C202.589 375.154 202.615 375.289 202.605 375.424C202.596 375.558 202.552 375.688 202.477 375.801C202.114 376.482 201.778 377.171 201.461 377.88C195.329 374.841 188.562 375.391 184.918 376.053ZM219.216 406.147C206.513 404.721 199.644 393.323 203.996 380.731C208.349 368.14 222.161 359.072 234.864 360.498C247.567 361.924 254.389 373.322 250.074 385.904C245.759 398.486 231.919 407.573 219.216 406.147Z" fill="black" fill-opacity="0.7"/>
<path d="M250.121 379.007L151.478 374.86C149.149 374.763 146.826 375.156 144.659 376.013C142.491 376.87 140.528 378.173 138.896 379.837L121.188 397.88C121.025 398.049 120.902 398.252 120.828 398.474C120.754 398.697 120.731 398.933 120.76 399.165C120.79 399.398 120.871 399.621 120.999 399.818C121.126 400.015 121.296 400.181 121.496 400.303C122.375 400.822 123.403 401.033 124.417 400.901C125.43 400.769 126.37 400.303 127.088 399.576L143.528 382.912C144.505 381.92 145.677 381.142 146.97 380.625C148.263 380.109 149.648 379.866 151.04 379.911L249.832 383.173L250.121 379.007Z" fill="#263238"/>
<path d="M118.653 364.272L216.159 379.725C218.461 380.092 220.661 380.938 222.616 382.208C224.571 383.478 226.239 385.143 227.511 387.097L241.304 408.291C241.434 408.486 241.517 408.708 241.548 408.941C241.578 409.173 241.555 409.409 241.481 409.631C241.406 409.853 241.282 410.055 241.117 410.222C240.952 410.389 240.752 410.515 240.531 410.593C239.563 410.938 238.507 410.947 237.533 410.619C236.559 410.291 235.724 409.645 235.162 408.785L222.412 389.213C221.652 388.047 220.659 387.051 219.494 386.289C218.329 385.527 217.019 385.015 215.646 384.786L118.187 368.42L118.653 364.272Z" fill="#263238"/>
<path d="M176.493 380.806C177.649 381.234 176.167 389.38 172.97 391.701C169.773 394.021 168.179 386.77 169.307 384.487C170.435 382.204 172.867 379.436 176.493 380.806Z" fill="#757575" stroke="#263238" stroke-linecap="round" stroke-linejoin="round"/>
<path d="M193.567 382.717C192.346 382.884 191.992 391.151 194.592 394.124C197.193 397.097 200.361 390.396 199.765 387.908C199.168 385.419 197.407 382.185 193.567 382.717Z" fill="#757575" stroke="#263238" stroke-linecap="round" stroke-linejoin="round"/>
<path opacity="0.4" d="M136.519 354.048C142.363 350.59 154.432 345.073 164.983 354.188C175.533 363.303 178.264 371.663 174.023 381.626C169.782 391.589 159.922 404.134 142.866 398.654C125.811 393.173 118.364 364.785 136.519 354.048Z" fill="white"/>
<path opacity="0.4" d="M205.842 362.753C211.694 359.295 223.755 353.778 234.305 362.893C244.855 372.008 247.595 380.359 243.345 390.331C239.095 400.303 229.272 412.876 212.188 407.349C195.105 401.823 187.677 373.49 205.842 362.753Z" fill="white"/>
<path d="M252.395 377.87L250.68 377.674C249.83 377.586 249.025 377.251 248.363 376.711C247.701 376.172 247.21 375.45 246.952 374.636C243.876 364.692 234.044 357.702 222.981 356.462C213.018 355.334 202.794 359.789 197.127 367.404C196.391 368.42 195.401 369.226 194.257 369.741C193.112 370.256 191.852 370.463 190.603 370.34L182.113 369.408C180.866 369.25 179.683 368.769 178.681 368.012C177.678 367.255 176.892 366.248 176.4 365.092C174.309 360.646 171.12 356.807 167.132 353.937C163.145 351.066 158.492 349.26 153.612 348.689C142.549 347.44 131.412 352.082 126.211 361.094C125.781 361.83 125.145 362.425 124.382 362.805C123.619 363.186 122.762 363.336 121.915 363.238L120.209 363.042C119.836 363 119.462 363.108 119.168 363.342C118.874 363.576 118.686 363.918 118.644 364.291L118.178 368.438C118.144 368.754 118.218 369.072 118.387 369.34C118.556 369.609 118.811 369.813 119.11 369.92L121.216 370.899C122.03 371.267 122.722 371.862 123.208 372.612C123.693 373.362 123.953 374.236 123.956 375.13C123.929 381.595 126.248 387.849 130.482 392.735C134.716 397.62 140.578 400.804 146.98 401.696C153.383 402.588 159.892 401.128 165.3 397.587C170.708 394.045 174.649 388.662 176.39 382.437C176.673 381.455 177.25 380.582 178.043 379.938C178.836 379.293 179.807 378.906 180.827 378.83C183.841 378.585 186.875 378.901 189.774 379.762C190.764 380.059 191.64 380.652 192.284 381.462C192.927 382.272 193.306 383.259 193.371 384.292C193.677 390.753 196.316 396.885 200.801 401.547C205.285 406.21 211.309 409.086 217.754 409.643C224.198 410.2 230.626 408.399 235.844 404.575C241.061 400.75 244.714 395.163 246.123 388.849C246.323 387.978 246.769 387.182 247.408 386.558C248.048 385.933 248.854 385.506 249.729 385.326L252.004 384.841C252.312 384.795 252.596 384.648 252.814 384.424C253.031 384.201 253.169 383.912 253.206 383.602L253.672 379.455C253.695 379.266 253.68 379.075 253.628 378.892C253.576 378.71 253.488 378.54 253.369 378.392C253.25 378.244 253.102 378.122 252.935 378.032C252.768 377.943 252.584 377.887 252.395 377.87ZM148.011 398.253C143.453 397.741 139.15 395.89 135.645 392.932C132.139 389.975 129.59 386.045 128.318 381.638C127.047 377.232 127.11 372.547 128.501 368.177C129.892 363.807 132.548 359.948 136.132 357.087C139.716 354.226 144.069 352.492 148.638 352.104C153.208 351.717 157.79 352.693 161.805 354.91C165.82 357.126 169.087 360.484 171.194 364.558C173.301 368.631 174.152 373.238 173.641 377.796C172.948 383.897 169.865 389.475 165.069 393.309C160.272 397.143 154.152 398.921 148.048 398.253H148.011ZM177.304 375.708C177.304 374.972 177.304 374.245 177.257 373.518C177.244 373.376 177.263 373.232 177.314 373.099C177.365 372.966 177.445 372.846 177.55 372.748C177.654 372.651 177.78 372.579 177.916 372.538C178.053 372.497 178.197 372.488 178.338 372.511L193.539 374.217C193.683 374.225 193.822 374.266 193.947 374.337C194.072 374.408 194.179 374.507 194.259 374.626C194.339 374.745 194.391 374.881 194.41 375.024C194.429 375.166 194.415 375.311 194.369 375.447C194.164 376.127 193.986 376.826 193.837 377.535C188.657 375.243 182.897 374.605 177.341 375.708H177.304ZM217.38 406.044C212.822 405.533 208.519 403.681 205.013 400.724C201.508 397.767 198.959 393.836 197.687 389.43C196.416 385.023 196.479 380.339 197.87 375.969C199.261 371.599 201.916 367.739 205.501 364.878C209.085 362.017 213.437 360.283 218.007 359.896C222.577 359.508 227.159 360.485 231.174 362.701C235.189 364.918 238.456 368.275 240.563 372.349C242.67 376.423 243.521 381.03 243.01 385.587C242.316 391.685 239.237 397.26 234.444 401.093C229.652 404.927 223.537 406.707 217.436 406.044H217.38Z" fill="#08A202" stroke="#263238" stroke-linecap="round" stroke-linejoin="round"/>
<path opacity="0.5" d="M132.624 387.218C132.624 387.218 126.156 374.617 134.366 362.734C141.757 352.054 154.516 352.93 159.987 356.462L143.081 376.742C145.251 371.436 147.988 366.38 151.245 361.663C151.245 361.663 137.806 371.197 132.624 387.218Z" fill="white"/>
<path opacity="0.5" d="M201.955 394.329C201.955 394.329 195.496 381.729 203.707 369.855C211.089 359.165 223.857 360.041 229.328 363.573L212.412 383.854C214.807 375.913 220.576 368.774 220.576 368.774C220.576 368.774 207.137 378.308 201.955 394.329Z" fill="white"/>
<path opacity="0.2" d="M139.334 295.528C139.334 295.528 120.48 318.93 119.166 320.403C117.851 321.875 118.234 345.567 115.009 356.238C111.784 366.91 100.656 377.87 75.7809 431.889L72.4257 326.647L90.7582 253.345L139.334 295.528Z" fill="black" fill-opacity="0.7"/>
<path d="M153.174 294.512C153.174 294.512 140.723 237.325 130.881 230.204C125.177 226.085 116.575 224.612 109.063 225.33C103.629 225.842 98.7547 227.511 96.0146 230.167C89.4161 236.495 79.8631 240.195 75.2217 244.305C70.5804 248.415 71.3819 262.013 68.9307 273.645C66.4796 285.276 61.978 285.928 61.6145 297.457C61.251 308.986 59.1447 344.365 52.164 354.551C45.1834 364.738 45.4536 372.39 42.9093 382.511C40.3649 392.633 19.6093 429.82 19.6093 429.82L76.0419 438.04C76.0419 438.04 80.152 414.964 84.9611 396.1C87.2352 387.143 89.6211 379.119 91.8113 374.944C95.9752 366.885 99.4997 358.511 102.352 349.901C108.28 342.92 110.861 328.064 111.15 315.184L125.587 305.966C136.874 302.145 153.174 294.512 153.174 294.512Z" fill="white"/>
<path opacity="0.3" d="M153.174 294.512C153.174 294.512 140.723 237.325 130.881 230.204C125.177 226.085 116.575 224.612 109.063 225.33C91.4851 230.856 87.2725 241.08 84.9984 243.625C81.9694 247.027 78.8938 266.822 81.8855 278.109C84.8772 289.395 83.4606 293.655 81.8855 299.321C78.3626 311.885 91.7088 317.747 93.3212 322.323C94.9335 326.899 95.9867 352.986 90.6836 361.802C87.8876 366.462 81.2518 390.21 84.9704 396.147C87.2445 387.19 89.6304 379.166 91.8206 374.99C95.9846 366.931 99.509 358.558 102.362 349.947C108.289 342.967 110.871 328.111 111.16 315.23L125.596 306.013C136.874 302.145 153.174 294.512 153.174 294.512Z" fill="black"/>
<path d="M85.2687 302.63C85.2687 302.63 81.9042 299.116 79.1268 299.274" stroke="#263238" stroke-linecap="round" stroke-linejoin="round"/>
<path d="M91.3826 289.721C91.3826 289.721 87.5707 282.732 82.0626 281.483" stroke="#263238" stroke-linecap="round" stroke-linejoin="round"/>
<path d="M82.948 247.912C82.948 247.912 90.7861 250.764 92.3332 256.3" stroke="#263238" stroke-linecap="round" stroke-linejoin="round"/>
<path d="M125.587 305.957C125.587 305.957 123.527 303.636 123.415 301.726" stroke="#263238" stroke-linecap="round" stroke-linejoin="round"/>
<path d="M76.0419 438.04C76.0419 438.04 85.0636 387.964 91.8113 374.99C95.9752 366.931 99.4997 358.558 102.352 349.947C108.28 342.967 110.861 328.101 111.15 315.221L125.587 306.003C136.874 302.192 153.174 294.596 153.174 294.596C153.174 294.596 140.723 237.408 130.881 230.288C121.039 223.167 102.595 223.932 95.9774 230.288C89.3602 236.644 79.8258 240.26 75.1844 244.37C70.5431 248.48 71.3446 262.078 68.8934 273.71C66.4423 285.341 61.9407 285.993 61.5772 297.522C61.2138 309.051 59.1074 344.43 52.1268 354.617C45.1461 364.803 45.4164 372.455 42.872 382.577C40.3276 392.698 19.572 429.885 19.572 429.885" stroke="#263238" stroke-linecap="round" stroke-linejoin="round"/>
<path d="M65.8939 119.311L64.2214 104.305C64.194 104.06 64.2653 103.813 64.4196 103.62C64.574 103.427 64.7987 103.303 65.0444 103.276L71.3893 102.569L73.2673 119.417L66.9224 120.125C66.6783 120.152 66.4334 120.082 66.2408 119.929C66.0482 119.777 65.9235 119.555 65.8939 119.311Z" fill="#08A202" stroke="#263238" stroke-linecap="round" stroke-linejoin="round"/>
<path d="M94.7083 79.4825L109.714 77.8099C109.959 77.7825 110.206 77.8539 110.399 78.0082C110.592 78.1626 110.716 78.3873 110.743 78.6329L111.451 84.9778L94.5925 86.8569L93.8843 80.5027C93.8595 80.2584 93.9322 80.0141 94.0865 79.8231C94.2408 79.6321 94.4642 79.5096 94.7083 79.4825Z" fill="#08A202" stroke="#263238" stroke-linecap="round" stroke-linejoin="round"/>
<path d="M114.751 77.2765L129.757 75.6039C130.002 75.5765 130.249 75.6479 130.442 75.8022C130.635 75.9566 130.759 76.1813 130.786 76.4269L131.493 82.7719L114.645 84.6498L113.937 78.3049C113.91 78.0593 113.981 77.8128 114.136 77.6197C114.29 77.4266 114.515 77.3028 114.76 77.2754L114.751 77.2765Z" fill="#08A202" stroke="#263238" stroke-linecap="round" stroke-linejoin="round"/>
<path d="M88.1579 303.767L65.8924 103.862C65.324 98.7661 66.8006 93.6528 69.9983 89.6444C73.1959 85.6361 77.8532 83.0601 82.948 82.482L373.732 50.0856C376.263 49.7979 378.826 50.0123 381.274 50.7165C383.722 51.4207 386.007 52.6009 387.998 54.1895C389.989 55.7782 391.648 57.744 392.878 59.9745C394.108 62.2049 394.887 64.6562 395.168 67.1878L417.434 267.093C418.001 272.197 416.519 277.318 413.312 281.329C410.104 285.34 405.435 287.913 400.331 288.482L109.547 320.869C107.02 321.151 104.461 320.933 102.018 320.226C99.5751 319.52 97.2952 318.338 95.3088 316.75C93.3224 315.162 91.6684 313.198 90.4414 310.97C89.2145 308.742 88.4385 306.294 88.1579 303.767Z" fill="#08A202" stroke="#263238" stroke-linecap="round" stroke-linejoin="round"/>
<path d="M400.331 285.947L108.988 318.399C104.622 318.883 100.242 317.614 96.8115 314.87C93.3809 312.126 91.1801 308.133 90.6929 303.767L68.3249 103.312C67.8381 98.9445 69.1062 94.5623 71.8503 91.1296C74.5944 87.6968 78.5897 85.4947 82.9573 85.0077L374.338 52.5647C378.703 52.0779 383.083 53.345 386.514 56.0874C389.945 58.8297 392.146 62.8226 392.633 67.1878L415.001 267.642C415.241 269.808 415.051 271.999 414.443 274.091C413.836 276.183 412.822 278.135 411.459 279.835C410.097 281.534 408.413 282.949 406.504 283.998C404.594 285.047 402.497 285.709 400.331 285.947Z" fill="#757575" stroke="#263238" stroke-linecap="round" stroke-linejoin="round"/>
<path d="M84.3274 202.999C84.3539 203.148 84.3496 203.301 84.3148 203.448C84.2799 203.596 84.2153 203.734 84.1248 203.856C84.0343 203.977 83.9199 204.079 83.7886 204.154C83.6573 204.23 83.512 204.278 83.3615 204.295C83.211 204.312 83.0586 204.298 82.9137 204.254C82.7687 204.211 82.6343 204.137 82.5188 204.04C82.4032 203.942 82.3089 203.821 82.2416 203.685C82.1744 203.55 82.1357 203.402 82.1278 203.25C82.1013 203.101 82.1056 202.948 82.1404 202.801C82.1753 202.654 82.2399 202.515 82.3304 202.393C82.4209 202.272 82.5353 202.17 82.6666 202.095C82.7979 202.019 82.9432 201.971 83.0937 201.954C83.2442 201.937 83.3966 201.951 83.5415 201.995C83.6865 202.039 83.8209 202.112 83.9365 202.21C84.052 202.308 84.1464 202.428 84.2136 202.564C84.2808 202.699 84.3195 202.848 84.3274 202.999Z" fill="#999999" stroke="#263238" stroke-linecap="round" stroke-linejoin="round"/>
<path d="M86.4523 212.906C86.4995 213.322 86.4222 213.742 86.2304 214.114C86.0385 214.486 85.7407 214.793 85.3745 214.996C85.0084 215.198 84.5904 215.288 84.1733 215.253C83.7563 215.218 83.359 215.06 83.0318 214.799C82.7045 214.538 82.4619 214.186 82.3347 213.788C82.2074 213.389 82.2013 212.961 82.3171 212.559C82.4328 212.157 82.6652 211.798 82.9849 211.528C83.3046 211.258 83.6972 211.089 84.113 211.042C84.6704 210.979 85.2299 211.14 85.6686 211.49C86.1072 211.839 86.3892 212.349 86.4523 212.906Z" fill="#263238"/>
<path d="M83.7216 188.422C83.7687 188.838 83.6915 189.259 83.4996 189.63C83.3078 190.002 83.0099 190.309 82.6438 190.512C82.2776 190.714 81.8596 190.804 81.4426 190.769C81.0255 190.734 80.6283 190.576 80.301 190.315C79.9737 190.054 79.7311 189.702 79.6039 189.304C79.4767 188.905 79.4705 188.478 79.5863 188.075C79.702 187.673 79.9344 187.314 80.2541 187.044C80.5738 186.774 80.9664 186.605 81.3822 186.558C81.9391 186.498 82.4973 186.66 82.9354 187.009C83.3735 187.358 83.656 187.866 83.7216 188.422Z" fill="#263238"/>
<path d="M86.676 219.952C86.7205 220.359 86.6017 220.766 86.3456 221.085C86.0895 221.404 85.7173 221.608 85.3106 221.653C84.904 221.697 84.4964 221.578 84.1774 221.322C83.8584 221.066 83.6542 220.694 83.6097 220.287C83.5877 220.086 83.6055 219.882 83.6622 219.688C83.7189 219.494 83.8134 219.312 83.9402 219.154C84.1962 218.835 84.5685 218.631 84.9751 218.587C85.3817 218.542 85.7894 218.661 86.1084 218.917C86.4273 219.173 86.6315 219.545 86.676 219.952Z" fill="#263238"/>
<path d="M101.588 304.764L79.0243 102.678C78.7861 100.523 79.413 98.3618 80.7673 96.6685C82.1215 94.9752 84.0925 93.8886 86.2473 93.6474L379.24 61.0274C381.396 60.7891 383.559 61.4157 385.254 62.7698C386.948 64.1238 388.037 66.0948 388.28 68.2504L410.788 270.364C410.908 271.431 410.815 272.512 410.517 273.543C410.218 274.575 409.719 275.538 409.048 276.376C408.378 277.215 407.548 277.913 406.607 278.431C405.666 278.949 404.633 279.277 403.565 279.395L110.572 312.015C108.42 312.245 106.264 311.61 104.579 310.25C102.894 308.89 101.818 306.917 101.588 304.764Z" fill="white"/>
<path d="M168.692 110.675H168.627L168.711 122.539L163.957 123.061L159.055 101.336L162.42 100.964L166.148 118.103H166.213L165.896 100.572L169.223 100.209L172.867 117.497H172.933L172.746 99.7892L175.766 99.4443V121.728L171.171 122.232L168.692 110.675Z" fill="#263238"/>
<path d="M181.992 108.168L186.745 107.646L187.09 110.787L182.346 111.318L183.063 117.758L189.038 117.096L189.382 120.237L179.96 121.29L177.509 99.2858L186.931 98.2327L187.285 101.374L181.311 102.045L181.992 108.168Z" fill="#263238"/>
<path d="M207.594 118.206L204.099 118.597L203.055 114.636L198.814 115.111L198.665 119.166L195.487 119.52L196.559 97.1517L201.62 96.5925L207.594 118.206ZM198.926 112.11L202.253 111.738L199.383 100.796H199.318L198.926 112.11Z" fill="#263238"/>
<path d="M216.429 117.227C216.044 116.39 215.835 115.483 215.814 114.561L215.422 111.104C215.199 109.053 214.425 108.382 212.85 108.55L211.657 108.69L212.654 117.646L209.197 118.028L206.746 95.996L211.965 95.4181C215.544 95.0174 217.268 96.5086 217.65 99.9104L217.846 101.635C218.097 103.899 217.529 105.428 216.075 106.295V106.36C217.883 106.891 218.629 108.457 218.871 110.75L219.253 114.151C219.291 115.065 219.52 115.96 219.924 116.78L216.429 117.227ZM210.548 98.792L211.303 105.549L212.654 105.4C213.95 105.26 214.668 104.608 214.518 102.846L214.276 100.675C214.099 99.0995 213.493 98.4751 212.263 98.6056L210.548 98.792Z" fill="#263238"/>
<path d="M223.876 103.508L228.62 102.977L228.974 106.117L224.221 106.649L224.938 113.098L230.912 112.427L231.266 115.568L221.816 116.621L219.365 94.6166L228.797 93.5728L229.141 96.7136L223.177 97.3753L223.876 103.508Z" fill="#263238"/>
<path d="M241.733 114.403L238.275 114.794L235.796 92.7898L239.254 92.3983L240.307 101.83L244.24 101.392L243.252 91.9696L246.775 91.5688L249.226 113.573L245.703 113.965L244.65 104.542L240.726 104.971L241.733 114.403Z" fill="#263238"/>
<path d="M249.254 91.336L252.712 90.9539L255.163 112.958L251.705 113.341L249.254 91.336Z" fill="#263238"/>
<path d="M264.902 111.84C264.521 111.002 264.312 110.095 264.287 109.175L263.905 105.717C263.681 103.676 262.899 102.995 261.333 103.172L260.14 103.303L261.137 112.269L257.679 112.651L255.228 90.6464L260.447 90.0685C264.026 89.6678 265.75 91.159 266.133 94.5515L266.319 96.285C266.571 98.5497 266.011 100.069 264.558 100.945V101.01C266.366 101.541 267.121 103.117 267.354 105.409L267.736 108.802C267.767 109.716 267.996 110.612 268.407 111.43L264.902 111.84ZM259.031 93.4051L259.786 100.162L261.137 100.013C262.423 99.8639 263.15 99.2115 262.954 97.45L262.712 95.2877C262.535 93.7127 261.929 93.0789 260.699 93.2187L259.031 93.4051Z" fill="#263238"/>
<path d="M267.866 89.2203L271.324 88.8381L273.775 110.833L270.317 111.225L267.866 89.2203Z" fill="#263238"/>
<path d="M277.652 94.2718H277.596L279.367 110.209L276.254 110.554L273.803 88.54L278.146 88.0554L283.095 100.833H283.16L281.697 87.6639L284.773 87.3191L287.224 109.324L283.673 109.715L277.652 94.2718Z" fill="#263238"/>
<path d="M293.58 96.2289L298.417 95.6884L299.2 102.669C299.591 106.183 298.054 108.392 294.661 108.774C291.269 109.156 289.283 107.329 288.892 103.815L287.615 92.3705C287.224 88.8475 288.762 86.6387 292.154 86.2659C295.547 85.8931 297.532 87.7011 297.923 91.2241L298.165 93.3584L294.894 93.7219L294.587 91.3359C294.409 89.7702 293.655 89.2483 292.545 89.3694C291.436 89.4906 290.821 90.1616 290.998 91.7367L292.322 103.62C292.499 105.195 293.254 105.679 294.354 105.558C295.453 105.437 296.078 104.794 295.91 103.219L295.453 99.1647L293.888 99.3418L293.58 96.2289Z" fill="#263238"/>
<path d="M301.875 102.772L300.542 94.8683L299.526 85.744L302.984 85.3525L304 94.5327L304.447 102.539L301.875 102.772ZM304.997 103.983L305.37 107.32L302.033 107.693L301.67 104.356L304.997 103.983Z" fill="#263238"/>
<path d="M277.205 275.453L226.784 281.045C224.801 281.266 222.795 281.095 220.879 280.541C218.963 279.987 217.175 279.06 215.617 277.815C214.059 276.569 212.761 275.029 211.799 273.282C210.837 271.535 210.228 269.616 210.008 267.633C209.786 265.652 209.957 263.646 210.51 261.73C211.064 259.815 211.989 258.027 213.234 256.469C214.478 254.911 216.018 253.614 217.764 252.651C219.51 251.688 221.428 251.079 223.41 250.857L273.84 245.265C275.823 245.042 277.83 245.213 279.746 245.766C281.663 246.32 283.451 247.246 285.009 248.492C286.568 249.738 287.865 251.278 288.827 253.026C289.789 254.774 290.397 256.694 290.616 258.677C290.839 260.659 290.669 262.666 290.115 264.583C289.561 266.499 288.635 268.288 287.39 269.846C286.144 271.404 284.603 272.701 282.855 273.663C281.108 274.626 279.188 275.234 277.205 275.453Z" fill="#08A202" stroke="#263238" stroke-linecap="round" stroke-linejoin="round"/>
<path d="M240.456 271.212L238.191 271.463L237.52 268.919L234.771 269.227L234.668 271.855L232.609 272.088L233.308 257.567L236.588 257.195L240.456 271.212ZM234.864 267.26L237.026 267.018L235.162 259.916L234.864 267.26Z" fill="#263238"/>
<path d="M246.98 259.599L247.185 261.463C247.446 263.747 246.477 265.107 244.24 265.359L243.177 265.471L243.774 270.839L241.537 271.091L239.943 256.822L243.252 256.449C245.451 256.188 246.691 257.316 246.98 259.599ZM242.413 258.602L242.954 263.43L244.016 263.309C244.725 263.234 245.079 262.861 244.948 261.845L244.715 259.702C244.603 258.686 244.175 258.397 243.466 258.481L242.413 258.602Z" fill="#263238"/>
<path d="M254.632 258.742L254.837 260.606C255.088 262.889 254.128 264.25 251.882 264.502L250.829 264.623L251.426 269.982L249.18 270.233L247.595 255.964L250.894 255.592C253.141 255.368 254.371 256.458 254.632 258.742ZM250.065 257.745L250.596 262.572L251.659 262.451C252.376 262.377 252.721 262.004 252.591 260.988L252.358 258.844C252.236 257.828 251.817 257.549 251.099 257.623L250.065 257.745Z" fill="#263238"/>
<path d="M255.275 255.098L257.521 254.846L258.882 267.074L262.61 266.664L262.833 268.705L256.906 269.366L255.275 255.098Z" fill="#263238"/>
<path d="M264.082 263.756L260.186 254.529L262.535 254.268L264.949 260.587L265.881 253.895L268.025 253.662L266.254 263.514L266.776 268.248L264.539 268.49L264.082 263.756Z" fill="#263238"/>
<path d="M283.863 288.723L223.248 295.479L223.457 297.351L284.072 290.594L283.863 288.723Z" fill="#999999" stroke="#263238" stroke-linecap="round" stroke-linejoin="round"/>
<path d="M371.066 224.09L129.93 250.941C129.93 250.941 119.454 228.424 125.792 213.81C132.13 199.196 151.32 207.528 159.447 193.968C167.574 180.407 158.16 171.423 167.108 152.848C176.055 134.273 201.694 124.366 220.837 132.512C239.981 140.657 246.458 152.941 258.63 149.502C270.802 146.063 277.736 130.256 301.856 131.412C325.976 132.568 331.158 166.343 329.76 183.007C328.362 199.672 376.453 184.797 371.066 224.09Z" fill="white"/>
<path d="M299.004 151.133L298.781 149.12L283.682 150.807L284.13 154.889L284.94 162.14L300.039 160.462L299.004 151.133Z" fill="white"/>
<path opacity="0.2" d="M284.954 162.004L294.467 160.943L293.22 149.754L283.707 150.814L284.954 162.004Z" fill="black"/>
<path d="M299.004 151.133L298.781 149.12L283.682 150.807L284.13 154.889L284.94 162.14L300.039 160.462L299.004 151.133Z" stroke="#263238" stroke-linecap="round" stroke-linejoin="round"/>
<path d="M293.235 149.735L293.347 150.732" stroke="#263238" stroke-linecap="round" stroke-linejoin="round"/>
<path d="M285.807 174.396L284.083 158.906L292.163 152.792L300.169 151.897L302.443 172.383L285.807 174.396Z" fill="#263238"/>
<path opacity="0.2" d="M285.807 174.396L294.801 173.398L292.499 152.755L284.083 158.906L285.807 174.396Z" fill="black"/>
<path d="M285.807 174.396L284.083 158.906L292.163 152.792L300.169 151.897L302.443 172.383L285.807 174.396Z" stroke="#263238" stroke-linecap="round" stroke-linejoin="round"/>
<path opacity="0.2" d="M292.881 156.185L293.356 160.5" stroke="white" stroke-linecap="round" stroke-linejoin="round"/>
<path opacity="0.2" d="M293.645 163.072L294.661 172.187" stroke="white" stroke-linecap="round" stroke-linejoin="round"/>
<path d="M223.929 220.612L220.984 220.94C220.537 220.99 220.088 220.86 219.737 220.58C219.385 220.299 219.16 219.89 219.11 219.443L218.399 213.061L224.707 212.358L225.42 218.758C225.464 219.201 225.333 219.643 225.054 219.99C224.775 220.337 224.371 220.56 223.929 220.612Z" fill="#999999" stroke="#263238" stroke-linecap="round" stroke-linejoin="round"/>
<path d="M221.499 230.098L225.445 229.658L224.432 220.572L220.486 221.012L221.499 230.098Z" fill="#757575" stroke="#263238" stroke-linecap="round" stroke-linejoin="round"/>
<path d="M217.622 213.148L225.74 212.235L227.967 208.507L214.621 209.998L217.622 213.148Z" fill="#757575" stroke="#263238" stroke-linecap="round" stroke-linejoin="round"/>
<path d="M240.456 198.6L229.272 199.839L225.544 188.105H223.96L227.688 200.324C227.377 200.361 227.094 200.519 226.899 200.763C226.704 201.007 226.612 201.318 226.644 201.629L226.914 204.015C227.01 204.795 227.409 205.505 228.024 205.994C228.64 206.482 229.423 206.708 230.204 206.624L239.785 205.562C240.155 205.517 240.492 205.329 240.724 205.038C240.956 204.747 241.064 204.376 241.025 204.005L240.456 198.6Z" fill="#999999" stroke="#263238" stroke-linecap="round" stroke-linejoin="round"/>
<path d="M241.388 204.471L240.82 204.527C240.432 204.571 240.041 204.474 239.719 204.253C239.397 204.032 239.166 203.703 239.067 203.325L235.796 190.445C235.638 189.841 235.288 189.306 234.799 188.919C234.309 188.532 233.707 188.315 233.084 188.301L223.922 188.068C223.582 188.057 223.258 187.923 223.008 187.692C222.758 187.461 222.599 187.148 222.562 186.81C222.52 186.439 222.627 186.067 222.859 185.775C223.092 185.483 223.43 185.296 223.801 185.253L224.948 185.132L234.035 185.514C235.118 185.558 236.159 185.952 236.999 186.638C237.84 187.323 238.435 188.264 238.695 189.317L242.152 203.372C242.176 203.494 242.176 203.62 242.15 203.743C242.124 203.865 242.074 203.981 242.003 204.083C241.932 204.186 241.841 204.273 241.735 204.34C241.629 204.406 241.511 204.451 241.388 204.471Z" fill="#BFBFBF"/>
<path d="M241.388 204.471L240.82 204.527C240.432 204.571 240.041 204.474 239.719 204.253C239.397 204.032 239.166 203.703 239.067 203.325L235.796 190.445C235.638 189.841 235.288 189.306 234.799 188.919C234.309 188.532 233.707 188.315 233.084 188.301L223.922 188.068C223.582 188.057 223.258 187.923 223.008 187.692C222.758 187.461 222.599 187.148 222.562 186.81V186.81C222.52 186.439 222.627 186.067 222.859 185.775C223.092 185.483 223.43 185.296 223.801 185.253L224.948 185.132L234.035 185.514C235.118 185.558 236.159 185.952 236.999 186.638C237.84 187.323 238.435 188.264 238.695 189.317L242.152 203.372C242.176 203.494 242.176 203.62 242.15 203.743C242.124 203.865 242.074 203.981 242.003 204.083C241.932 204.186 241.841 204.273 241.735 204.34C241.629 204.406 241.511 204.451 241.388 204.471" stroke="#263238" stroke-linecap="round" stroke-linejoin="round"/>
<path d="M186.037 163.799L198.805 205.515L227.483 202.319L228.098 197.77L221.089 174.647L216.429 159.111C216.131 158.134 215.504 157.291 214.654 156.723C213.805 156.156 212.786 155.9 211.769 155.998L189.522 158.44C188.856 158.51 188.218 158.742 187.662 159.115C187.106 159.489 186.651 159.993 186.335 160.584C186.076 161.073 185.916 161.61 185.865 162.161C185.813 162.713 185.872 163.27 186.037 163.799Z" fill="#08A202"/>
<path opacity="0.2" d="M186.037 163.799L198.805 205.515L227.483 202.319L228.098 197.77L221.089 174.647L197.155 177.313L192.644 162.597C192.424 161.874 191.96 161.251 191.331 160.833C190.702 160.415 189.947 160.228 189.196 160.304L186.4 160.612C185.862 161.584 185.732 162.73 186.037 163.799Z" fill="black"/>
<path d="M186.037 163.799L198.805 205.515L227.483 202.319L228.098 197.77L221.089 174.647L216.429 159.111C216.131 158.134 215.504 157.291 214.654 156.723C213.805 156.156 212.786 155.9 211.769 155.998L189.522 158.44C188.856 158.51 188.218 158.742 187.662 159.115C187.106 159.489 186.651 159.993 186.335 160.584C186.076 161.073 185.916 161.61 185.865 162.161C185.813 162.713 185.872 163.27 186.037 163.799V163.799Z" stroke="#263238" stroke-linecap="round" stroke-linejoin="round"/>
<path d="M208.675 237.977C214.556 234.062 232.795 232.031 239.431 234.556L242.227 233.429C235.172 229.785 225.451 229.635 225.451 229.635L221.173 230.111C221.173 230.111 211.769 232.385 205.683 237.492L208.675 237.977Z" fill="#999999" stroke="#263238" stroke-linecap="round" stroke-linejoin="round"/>
<path d="M239.226 236.262C239.299 236.918 239.629 237.519 240.145 237.931C240.661 238.344 241.319 238.534 241.975 238.461C242.631 238.389 243.232 238.058 243.644 237.542C244.057 237.027 244.248 236.368 244.175 235.712C244.139 235.387 244.039 235.072 243.881 234.786C243.723 234.5 243.511 234.247 243.256 234.043C243 233.839 242.707 233.687 242.393 233.596C242.079 233.505 241.75 233.476 241.425 233.513C241.1 233.549 240.786 233.648 240.499 233.806C240.213 233.964 239.96 234.176 239.756 234.432C239.552 234.687 239.4 234.98 239.309 235.294C239.218 235.608 239.19 235.937 239.226 236.262Z" fill="#BFBFBF" stroke="#263238" stroke-linecap="round" stroke-linejoin="round"/>
<path d="M204.266 240.158C204.33 240.643 204.535 241.1 204.857 241.469C205.178 241.839 205.602 242.105 206.074 242.235C206.546 242.365 207.047 242.353 207.512 242.199C207.977 242.046 208.387 241.759 208.69 241.374C208.993 240.989 209.175 240.523 209.214 240.035C209.254 239.547 209.148 239.058 208.91 238.629C208.673 238.201 208.314 237.852 207.88 237.627C207.445 237.401 206.953 237.309 206.466 237.362C206.137 237.399 205.819 237.5 205.529 237.661C205.24 237.822 204.986 238.039 204.781 238.3C204.577 238.56 204.426 238.858 204.337 239.177C204.249 239.496 204.225 239.829 204.266 240.158Z" fill="#BFBFBF" stroke="#263238" stroke-linecap="round" stroke-linejoin="round"/>
<path d="M209.15 211.834L237.213 208.712C238.417 208.578 239.582 208.207 240.643 207.622C241.704 207.037 242.639 206.248 243.395 205.301C244.15 204.354 244.712 203.267 245.047 202.103C245.383 200.939 245.485 199.72 245.349 198.516C245.312 198.157 245.204 197.809 245.031 197.492C244.858 197.175 244.624 196.896 244.342 196.67C244.06 196.445 243.736 196.277 243.389 196.178C243.042 196.079 242.678 196.05 242.32 196.093L201.312 200.66C200.958 200.699 200.614 200.808 200.302 200.98C199.99 201.152 199.714 201.385 199.492 201.663C199.269 201.942 199.104 202.262 199.005 202.605C198.907 202.947 198.877 203.306 198.917 203.661C199.045 204.872 199.413 206.046 199.998 207.114C200.584 208.182 201.375 209.124 202.327 209.884C203.279 210.644 204.372 211.208 205.543 211.543C206.714 211.878 207.94 211.977 209.15 211.834Z" fill="#08A202"/>
<path opacity="0.2" d="M198.945 203.502L199.029 204.257C199.284 206.538 200.434 208.625 202.228 210.058C204.021 211.491 206.31 212.153 208.591 211.9L237.763 208.647C238.892 208.523 239.986 208.177 240.982 207.63C241.978 207.082 242.856 206.343 243.566 205.456C244.276 204.569 244.804 203.55 245.119 202.458C245.435 201.366 245.532 200.223 245.405 199.094L245.321 198.33C245.27 197.844 245.079 197.384 244.772 197.005C244.464 196.626 244.052 196.345 243.588 196.195L243.746 197.603C243.835 198.417 243.597 199.233 243.086 199.873C242.574 200.512 241.829 200.922 241.015 201.014L215.134 203.903C214.318 203.992 213.501 203.755 212.86 203.243C212.219 202.731 211.807 201.987 211.713 201.172L211.536 199.523L201.209 200.669C200.534 200.746 199.917 201.088 199.493 201.618C199.068 202.149 198.871 202.827 198.945 203.502Z" fill="black"/>
<path d="M209.15 211.834L237.213 208.712C238.417 208.578 239.582 208.207 240.643 207.622C241.704 207.037 242.639 206.248 243.395 205.301C244.15 204.354 244.712 203.267 245.047 202.103C245.383 200.939 245.485 199.72 245.349 198.516V198.516C245.312 198.157 245.204 197.809 245.031 197.492C244.858 197.175 244.624 196.896 244.342 196.67C244.06 196.445 243.736 196.277 243.389 196.178C243.042 196.079 242.678 196.05 242.32 196.093L201.312 200.66C200.958 200.699 200.614 200.808 200.302 200.98C199.99 201.152 199.714 201.385 199.492 201.663C199.269 201.942 199.104 202.262 199.005 202.605C198.907 202.947 198.877 203.306 198.917 203.661C199.045 204.872 199.413 206.046 199.998 207.114C200.584 208.182 201.375 209.124 202.327 209.884C203.279 210.644 204.372 211.208 205.543 211.543C206.714 211.878 207.94 211.977 209.15 211.834V211.834Z" stroke="#263238" stroke-linecap="round" stroke-linejoin="round"/>
<path d="M209.076 202.095L197.947 203.334L194.164 191.601L192.589 191.554L196.316 203.782C196.162 203.798 196.012 203.845 195.876 203.919C195.739 203.994 195.619 204.095 195.522 204.216C195.425 204.338 195.353 204.477 195.31 204.626C195.267 204.776 195.255 204.932 195.273 205.087L195.534 207.473C195.625 208.261 196.024 208.981 196.643 209.477C197.263 209.972 198.053 210.203 198.842 210.119L208.423 209.048C208.606 209.028 208.784 208.972 208.945 208.884C209.107 208.795 209.249 208.676 209.365 208.532C209.48 208.388 209.565 208.223 209.617 208.046C209.668 207.869 209.683 207.684 209.663 207.5L209.076 202.095Z" fill="#999999" stroke="#263238" stroke-linecap="round" stroke-linejoin="round"/>
<path d="M210.054 207.957L209.476 208.022C209.088 208.066 208.698 207.967 208.377 207.744C208.057 207.521 207.828 207.189 207.733 206.811L204.462 193.94C204.302 193.337 203.952 192.802 203.463 192.414C202.974 192.026 202.374 191.806 201.75 191.787L192.588 191.554C192.248 191.545 191.922 191.414 191.671 191.185C191.419 190.955 191.259 190.643 191.218 190.305C191.179 189.933 191.288 189.561 191.522 189.27C191.756 188.978 192.096 188.791 192.467 188.749L193.604 188.618L202.701 189C203.785 189.046 204.826 189.442 205.666 190.129C206.507 190.816 207.101 191.758 207.361 192.812L210.809 206.904C210.841 207.026 210.845 207.153 210.823 207.277C210.801 207.401 210.753 207.519 210.681 207.622C210.61 207.725 210.516 207.812 210.408 207.877C210.3 207.941 210.179 207.981 210.054 207.994" fill="#BFBFBF"/>
<path d="M210.054 207.957L209.476 208.022C209.088 208.066 208.698 207.967 208.377 207.744C208.057 207.521 207.828 207.189 207.733 206.811L204.462 193.94C204.302 193.337 203.952 192.802 203.463 192.414C202.974 192.026 202.374 191.806 201.75 191.787L192.588 191.554C192.248 191.545 191.922 191.414 191.671 191.185C191.419 190.955 191.259 190.643 191.218 190.305V190.305C191.179 189.933 191.288 189.561 191.522 189.27C191.756 188.978 192.096 188.791 192.467 188.749L193.604 188.618L202.701 189C203.785 189.046 204.826 189.442 205.666 190.129C206.507 190.816 207.101 191.758 207.361 192.812L210.809 206.904C210.841 207.026 210.845 207.153 210.823 207.277C210.801 207.401 210.753 207.519 210.681 207.622C210.61 207.725 210.516 207.812 210.408 207.877C210.3 207.941 210.179 207.981 210.054 207.994V207.994" stroke="#263238" stroke-linecap="round" stroke-linejoin="round"/>
<path d="M229.971 178.758L219.598 179.876L219.663 180.435C219.673 180.571 219.711 180.704 219.774 180.825C219.837 180.947 219.924 181.054 220.029 181.141C220.134 181.228 220.256 181.293 220.387 181.332C220.518 181.371 220.655 181.383 220.791 181.367H221.061L254.939 177.593C255.026 177.583 255.111 177.557 255.188 177.515C255.264 177.473 255.332 177.416 255.387 177.347C255.441 177.279 255.482 177.2 255.506 177.116C255.53 177.031 255.537 176.943 255.526 176.856L255.424 175.924L229.971 178.758Z" fill="#999999" stroke="#263238" stroke-linecap="round" stroke-linejoin="round"/>
<path d="M261.482 157.75L259.795 174.526C259.76 174.876 259.606 175.204 259.358 175.453C259.11 175.703 258.784 175.859 258.434 175.896L232.292 178.813C232.136 178.83 231.979 178.811 231.832 178.759C231.685 178.706 231.551 178.621 231.441 178.51C231.331 178.399 231.248 178.265 231.196 178.118C231.145 177.97 231.128 177.813 231.145 177.658L233.009 160.882C233.047 160.536 233.202 160.214 233.448 159.969C233.693 159.723 234.015 159.568 234.361 159.53L260.336 156.576C260.493 156.557 260.653 156.575 260.802 156.628C260.952 156.68 261.087 156.767 261.198 156.88C261.309 156.994 261.392 157.131 261.441 157.282C261.491 157.433 261.504 157.593 261.482 157.75Z" fill="#BFBFBF" stroke="#263238" stroke-linecap="round" stroke-linejoin="round"/>
<path d="M247.11 165.738L249.133 165.514L249.906 167.266L248.658 169.233L246.635 169.456L245.862 167.713L247.11 165.738Z" fill="white" stroke="#263238" stroke-linecap="round" stroke-linejoin="round"/>
<path d="M287.336 152.718L287.112 150.695L272.014 152.391L272.47 156.473L273.272 163.724L288.37 162.038L287.336 152.718Z" fill="white"/>
<path opacity="0.2" d="M273.187 163.047L282.746 161.981L281.56 151.339L272.001 152.404L273.187 163.047Z" fill="black"/>
<path d="M287.336 152.718L287.112 150.695L272.014 152.391L272.47 156.473L273.272 163.724L288.37 162.038L287.336 152.718Z" stroke="#263238" stroke-linecap="round" stroke-linejoin="round"/>
<path d="M281.567 151.31L281.678 152.317" stroke="#263238" stroke-linecap="round" stroke-linejoin="round"/>
<path d="M274.138 175.98L272.414 160.481L280.495 154.367L288.501 153.482L290.784 173.967L274.138 175.98Z" fill="#08A202"/>
<path opacity="0.2" d="M280.495 154.367L282.778 174.936L274.129 175.896L272.414 160.481L280.495 154.367Z" fill="black"/>
<path d="M274.138 175.98L272.414 160.481L280.495 154.367L288.501 153.482L290.784 173.967L274.138 175.98Z" stroke="#263238" stroke-linecap="round" stroke-linejoin="round"/>
<path d="M281.212 157.76L281.697 162.075" stroke="#263238" stroke-linecap="round" stroke-linejoin="round"/>
<path d="M281.977 164.656L282.993 173.771" stroke="#263238" stroke-linecap="round" stroke-linejoin="round"/>
<path d="M270.372 179.003L266.398 179.446L272.595 235.041L276.568 234.598L270.372 179.003Z" fill="#08A202"/>
<path opacity="0.2" d="M270.372 179.003L266.398 179.446L272.595 235.041L276.568 234.598L270.372 179.003Z" fill="black"/>
<path d="M270.372 179.003L266.398 179.446L272.595 235.041L276.568 234.598L270.372 179.003Z" stroke="#263238" stroke-linecap="round" stroke-linejoin="round"/>
<path d="M245.983 181.74L305.034 175.16L311.223 230.754L307.252 231.192L301.427 178.86L246.346 185.002L245.983 181.74Z" fill="#08A202" stroke="#263238" stroke-linecap="round" stroke-linejoin="round"/>
<path d="M293.394 173.324L206.913 182.961L207.249 186.027L306.703 174.955L306.358 171.879L299.097 172.69L293.394 173.324Z" fill="#08A202"/>
<path opacity="0.6" d="M293.394 173.324L206.913 182.961L207.249 186.027L306.703 174.955L306.358 171.879L299.097 172.69L293.394 173.324Z" fill="white"/>
<path d="M293.394 173.324L206.913 182.961L207.249 186.027L306.703 174.955L306.358 171.879L299.097 172.69L293.394 173.324Z" stroke="#263238" stroke-linecap="round" stroke-linejoin="round"/>
<path d="M215.124 241.453L208.926 185.859L248.443 181.46L254.641 237.054L250.661 237.492L244.836 185.17L213.26 188.683L219.095 241.015L215.124 241.453Z" fill="#08A202"/>
<path opacity="0.2" d="M215.124 241.453L208.926 185.859L248.443 181.46L254.641 237.054L250.661 237.492L244.836 185.17L213.26 188.683L219.095 241.015L215.124 241.453Z" fill="white"/>
<path d="M215.124 241.453L208.926 185.859L248.443 181.46L254.641 237.054L250.661 237.492L244.836 185.17L213.26 188.683L219.095 241.015L215.124 241.453Z" stroke="#263238" stroke-linecap="round" stroke-linejoin="round"/>
<path d="M309.154 189.653C305.979 187.116 302.136 185.557 298.092 185.165C294.048 184.773 289.977 185.564 286.374 187.444C282.772 189.323 279.793 192.209 277.801 195.75C275.809 199.291 274.888 203.335 275.152 207.39C275.416 211.444 276.853 215.335 279.288 218.588C281.723 221.841 285.051 224.316 288.866 225.712C292.682 227.108 296.822 227.365 300.781 226.452C304.74 225.538 308.348 223.494 311.167 220.567L314.326 223.093L316.731 220.083L313.571 217.557C316.444 213.192 317.584 207.911 316.767 202.749C315.95 197.588 313.235 192.917 309.154 189.653ZM310.356 217.482C308.083 220.31 305.022 222.401 301.561 223.489C298.1 224.577 294.394 224.614 290.912 223.596C287.429 222.578 284.327 220.55 281.998 217.768C279.668 214.986 278.216 211.576 277.825 207.969C277.434 204.362 278.121 200.72 279.8 197.504C281.479 194.288 284.074 191.641 287.257 189.9C290.44 188.159 294.068 187.401 297.682 187.722C301.296 188.043 304.734 189.428 307.56 191.703C309.438 193.211 311 195.075 312.156 197.187C313.313 199.299 314.042 201.619 314.302 204.013C314.562 206.407 314.347 208.829 313.67 211.14C312.993 213.452 311.867 215.607 310.356 217.482Z" fill="#757575" stroke="#263238" stroke-linecap="round" stroke-linejoin="round"/>
<path d="M340.711 241.723C340.471 242.027 340.173 242.279 339.834 242.467C339.496 242.655 339.124 242.774 338.739 242.817C338.355 242.86 337.965 242.827 337.594 242.72C337.222 242.612 336.875 242.432 336.573 242.189L313.609 223.829C313.544 223.777 313.49 223.713 313.45 223.641C313.41 223.568 313.385 223.488 313.377 223.406C313.368 223.323 313.376 223.24 313.4 223.161C313.423 223.081 313.463 223.008 313.516 222.944L316.405 219.327C316.509 219.197 316.661 219.113 316.826 219.094C316.992 219.075 317.159 219.122 317.29 219.225L340.255 237.585C340.864 238.074 341.254 238.784 341.339 239.56C341.425 240.336 341.199 241.114 340.711 241.723Z" fill="#999999" stroke="#263238" stroke-linecap="round" stroke-linejoin="round"/>
<path d="M186.475 244.65L183.781 244.948L171.656 197.761L174.256 197.09L186.475 244.65Z" fill="#999999" stroke="#263238" stroke-linecap="round" stroke-linejoin="round"/>
<path d="M184.762 175.991L152.545 184.269L157.734 204.462L189.95 196.184L184.762 175.991Z" fill="#263238"/>
<path d="M163.361 195.021L163.566 195.813C163.648 196.002 163.686 196.208 163.676 196.413C163.666 196.619 163.609 196.82 163.509 197.001C163.409 197.181 163.269 197.336 163.099 197.453C162.93 197.57 162.735 197.647 162.531 197.677L162.075 197.789L162.662 200.072L161.73 200.324L160.164 194.247L161.572 193.884C161.764 193.815 161.97 193.791 162.173 193.813C162.376 193.836 162.572 193.905 162.745 194.014C162.917 194.124 163.063 194.272 163.169 194.446C163.276 194.621 163.342 194.817 163.361 195.021ZM161.329 194.872L161.851 196.922L162.308 196.81C162.606 196.726 162.737 196.549 162.625 196.111L162.392 195.179C162.28 194.741 162.084 194.648 161.777 194.723L161.329 194.872Z" fill="#08A202"/>
<path d="M163.715 194.881C163.649 194.686 163.624 194.479 163.642 194.273C163.659 194.067 163.719 193.868 163.818 193.686C163.916 193.505 164.051 193.346 164.213 193.219C164.376 193.092 164.563 193 164.763 192.948C164.963 192.897 165.171 192.887 165.375 192.92C165.579 192.953 165.774 193.027 165.947 193.139C166.121 193.25 166.27 193.396 166.384 193.568C166.499 193.739 166.577 193.933 166.614 194.136L167.424 197.295C167.49 197.491 167.515 197.698 167.498 197.903C167.48 198.109 167.42 198.309 167.322 198.49C167.224 198.672 167.089 198.831 166.926 198.958C166.764 199.085 166.576 199.177 166.377 199.228C166.177 199.28 165.968 199.289 165.765 199.257C165.561 199.224 165.366 199.149 165.192 199.038C165.019 198.926 164.87 198.78 164.755 198.609C164.641 198.437 164.563 198.244 164.526 198.041L163.715 194.881ZM165.495 197.854C165.607 198.292 165.84 198.404 166.148 198.33C166.455 198.255 166.595 198.031 166.492 197.603L165.644 194.322C165.533 193.884 165.3 193.772 164.992 193.847C164.684 193.921 164.545 194.145 164.656 194.574L165.495 197.854Z" fill="#08A202"/>
<path d="M168.123 192.122C168.319 192.055 168.527 192.033 168.732 192.058C168.937 192.083 169.133 192.154 169.307 192.267C169.48 192.379 169.625 192.529 169.732 192.706C169.839 192.883 169.904 193.082 169.922 193.287L169.969 193.474L169.037 193.707L168.972 193.455C168.86 193.026 168.636 192.905 168.338 192.98C168.04 193.054 167.9 193.269 168.012 193.707C168.123 194.145 168.403 194.424 169.167 194.807C170.099 195.31 170.528 195.739 170.705 196.447C170.8 196.643 170.85 196.857 170.852 197.075C170.853 197.293 170.807 197.508 170.716 197.706C170.624 197.903 170.49 198.078 170.323 198.217C170.156 198.357 169.96 198.458 169.75 198.513C169.539 198.567 169.319 198.575 169.105 198.534C168.891 198.494 168.689 198.406 168.513 198.278C168.337 198.15 168.192 197.985 168.087 197.794C167.983 197.603 167.922 197.391 167.909 197.174L167.807 196.801L168.739 196.568L168.85 197.006C168.962 197.435 169.195 197.547 169.503 197.463C169.81 197.379 169.95 197.183 169.838 196.745C169.727 196.307 169.456 196.027 168.692 195.636C167.713 195.142 167.331 194.704 167.154 194.005C167.072 193.819 167.033 193.618 167.039 193.415C167.045 193.212 167.096 193.013 167.189 192.832C167.282 192.652 167.414 192.494 167.576 192.371C167.738 192.249 167.925 192.163 168.123 192.122Z" fill="#08A202"/>
<path d="M170.109 191.684L171.041 191.442L172.606 197.519L171.674 197.761L170.109 191.684Z" fill="#08A202"/>
<path d="M171.488 191.33L174.433 190.575L174.657 191.442L173.66 191.703L175.002 196.903L174.07 197.155L172.7 191.992L171.702 192.243L171.488 191.33Z" fill="#08A202"/>
<path d="M174.843 190.464L175.775 190.221L177.332 196.298L176.4 196.54L174.843 190.464Z" fill="#08A202"/>
<path d="M176.791 191.517C176.725 191.321 176.7 191.114 176.718 190.908C176.735 190.703 176.795 190.503 176.894 190.322C176.992 190.14 177.127 189.981 177.289 189.854C177.452 189.727 177.639 189.635 177.839 189.583C178.039 189.532 178.247 189.522 178.451 189.555C178.655 189.588 178.849 189.662 179.023 189.774C179.197 189.885 179.346 190.031 179.46 190.203C179.575 190.374 179.653 190.568 179.69 190.771L180.5 193.93C180.566 194.126 180.591 194.333 180.574 194.539C180.556 194.744 180.496 194.944 180.398 195.125C180.3 195.307 180.165 195.466 180.002 195.593C179.84 195.72 179.652 195.812 179.453 195.864C179.253 195.915 179.044 195.925 178.841 195.892C178.637 195.859 178.442 195.785 178.268 195.673C178.095 195.562 177.946 195.416 177.831 195.244C177.717 195.073 177.638 194.879 177.602 194.676L176.791 191.517ZM178.571 194.499C178.683 194.928 178.916 195.04 179.224 194.965C179.531 194.89 179.671 194.676 179.559 194.238L178.72 190.957C178.608 190.529 178.375 190.407 178.068 190.491C177.76 190.575 177.621 190.78 177.732 191.218L178.571 194.499Z" fill="#08A202"/>
<path d="M181.227 190.613L182.355 195.012L181.498 195.235L179.923 189.196L181.125 188.888L182.989 192.281L182.057 188.646L182.905 188.432L184.471 194.508L183.483 194.76L181.227 190.613Z" fill="#08A202"/>
<path d="M167.331 188.86L167.667 188.777C167.965 188.702 168.179 188.525 168.058 188.059L166.865 183.399L167.797 183.147L168.972 187.714C169.279 188.926 168.711 189.41 167.993 189.578L167.527 189.681L167.331 188.86Z" fill="#08A202"/>
<path d="M168.776 184.536C168.71 184.341 168.685 184.133 168.703 183.928C168.72 183.722 168.78 183.523 168.878 183.341C168.977 183.16 169.111 183 169.274 182.873C169.437 182.746 169.624 182.654 169.824 182.603C170.024 182.552 170.232 182.542 170.436 182.575C170.639 182.607 170.834 182.682 171.008 182.793C171.182 182.905 171.33 183.051 171.445 183.222C171.56 183.394 171.638 183.587 171.674 183.79L172.485 186.95C172.551 187.145 172.576 187.353 172.559 187.558C172.541 187.764 172.481 187.963 172.383 188.145C172.284 188.326 172.15 188.486 171.987 188.613C171.824 188.74 171.637 188.832 171.437 188.883C171.237 188.934 171.029 188.944 170.825 188.911C170.622 188.879 170.427 188.804 170.253 188.693C170.079 188.581 169.931 188.435 169.816 188.264C169.701 188.092 169.623 187.899 169.587 187.696L168.776 184.536ZM170.556 187.509C170.668 187.947 170.901 188.059 171.199 187.984C171.497 187.91 171.656 187.686 171.544 187.258L170.705 183.977C170.593 183.539 170.36 183.427 170.053 183.502C169.745 183.576 169.596 183.8 169.708 184.229L170.556 187.509Z" fill="#08A202"/>
<path d="M175.132 182.793L175.188 183.008C175.284 183.24 175.306 183.496 175.251 183.741C175.196 183.986 175.067 184.209 174.88 184.378C175.449 184.452 175.812 184.844 175.924 185.487L176.055 185.981C176.14 186.173 176.178 186.382 176.166 186.592C176.155 186.802 176.094 187.006 175.989 187.188C175.883 187.369 175.736 187.524 175.56 187.638C175.384 187.752 175.183 187.823 174.974 187.845L173.473 188.227L171.917 182.159L173.352 181.74C173.537 181.657 173.739 181.62 173.941 181.632C174.143 181.644 174.34 181.703 174.514 181.807C174.689 181.91 174.836 182.053 174.943 182.225C175.051 182.396 175.115 182.591 175.132 182.793ZM173.091 182.793L173.501 184.406L173.874 184.303C174.237 184.219 174.414 184.005 174.284 183.52L174.2 183.175C174.088 182.747 173.893 182.588 173.548 182.681L173.091 182.793ZM173.725 185.272L174.209 187.136L174.75 186.997C175.076 186.913 175.207 186.717 175.095 186.27L174.955 185.738C174.815 185.179 174.582 185.049 174.154 185.161L173.725 185.272Z" fill="#08A202"/>
<path d="M350.274 127.898L306.628 132.754C305.899 132.841 305.232 133.211 304.774 133.785C304.315 134.358 304.101 135.09 304.177 135.82L305.892 151.189C305.978 151.917 306.347 152.581 306.919 153.04C307.491 153.498 308.22 153.714 308.949 153.64L314.401 153.034L310.673 162.354L317.98 152.662L352.548 148.812C353.277 148.726 353.943 148.356 354.402 147.782C354.861 147.208 355.075 146.477 354.999 145.746L353.284 130.368C353.202 129.646 352.841 128.984 352.279 128.523C351.717 128.062 350.998 127.838 350.274 127.898Z" fill="white" stroke="#263238" stroke-linecap="round" stroke-linejoin="round"/>
<path d="M312.984 145.466C312.882 145.244 312.825 145.003 312.817 144.758L312.714 143.826C312.658 143.276 312.453 143.099 312.034 143.146H311.717L311.978 145.532L311.046 145.634L310.393 139.763L311.782 139.613C311.963 139.56 312.155 139.55 312.341 139.585C312.527 139.621 312.701 139.7 312.85 139.817C312.999 139.934 313.117 140.085 313.196 140.257C313.274 140.429 313.31 140.617 313.301 140.806L313.357 141.272C313.416 141.504 313.401 141.748 313.316 141.972C313.231 142.195 313.08 142.387 312.882 142.521C313.366 142.661 313.562 143.08 313.637 143.686L313.73 144.618C313.743 144.865 313.806 145.106 313.916 145.327L312.984 145.466ZM311.419 140.545L311.624 142.354L311.978 142.307C312.323 142.307 312.518 142.102 312.462 141.627L312.397 141.049C312.351 140.629 312.192 140.462 311.866 140.499L311.419 140.545Z" fill="#263238"/>
<path d="M315.016 141.813L316.283 141.664L316.377 142.503L315.109 142.642L315.296 144.367L316.889 144.19L316.982 145.028L314.466 145.308L313.814 139.436L316.33 139.157L316.423 139.996L314.83 140.173L315.016 141.813Z" fill="#263238"/>
<path d="M316.936 140.508C316.909 140.321 316.919 140.131 316.967 139.948C317.015 139.765 317.099 139.594 317.215 139.444C317.331 139.295 317.475 139.17 317.64 139.077C317.805 138.985 317.987 138.927 318.175 138.906C318.362 138.885 318.553 138.903 318.734 138.957C318.915 139.011 319.083 139.102 319.228 139.223C319.374 139.343 319.493 139.492 319.58 139.66C319.666 139.828 319.718 140.012 319.732 140.201L320.077 143.248C320.11 143.531 320.078 143.818 319.984 144.087C320.039 144.199 320.114 144.208 320.263 144.19H320.347L320.44 145.01H320.31C320.155 145.046 319.993 145.037 319.844 144.982C319.695 144.927 319.565 144.83 319.471 144.702C319.271 144.795 319.057 144.855 318.837 144.879C318.645 144.917 318.447 144.911 318.257 144.862C318.067 144.813 317.891 144.722 317.741 144.596C317.59 144.47 317.47 144.312 317.389 144.134C317.308 143.955 317.268 143.761 317.271 143.565L316.936 140.508ZM318.203 143.519C318.25 143.938 318.455 144.078 318.744 144.041C319.033 144.003 319.201 143.835 319.154 143.416L318.8 140.247C318.753 139.828 318.558 139.688 318.259 139.716C317.961 139.744 317.803 139.93 317.849 140.35L318.203 143.519Z" fill="#263238"/>
<path d="M321.046 138.626L321.549 143.155C321.596 143.575 321.801 143.705 322.09 143.668C322.379 143.631 322.556 143.463 322.509 143.053L322.006 138.523L322.873 138.421L323.376 142.894C323.396 143.078 323.38 143.264 323.329 143.441C323.277 143.618 323.191 143.784 323.075 143.928C322.96 144.072 322.817 144.192 322.655 144.281C322.493 144.37 322.315 144.426 322.132 144.446C321.948 144.466 321.762 144.45 321.585 144.398C321.408 144.347 321.242 144.261 321.098 144.145C320.954 144.03 320.834 143.887 320.745 143.725C320.656 143.563 320.6 143.385 320.58 143.202L320.077 138.728L321.046 138.626Z" fill="#263238"/>
<path d="M323.497 138.355L324.429 138.253L325.082 144.115L324.15 144.218L323.497 138.355Z" fill="#263238"/>
<path d="M327.673 143.826C327.571 143.604 327.514 143.363 327.505 143.118L327.402 142.186C327.346 141.645 327.141 141.459 326.722 141.506H326.405L326.666 143.892L325.734 143.994L325.082 138.132L326.47 137.973C326.652 137.921 326.844 137.913 327.03 137.95C327.215 137.987 327.39 138.068 327.538 138.185C327.687 138.302 327.805 138.454 327.883 138.626C327.962 138.798 327.998 138.987 327.989 139.176L328.045 139.632C328.105 139.864 328.092 140.109 328.007 140.332C327.921 140.556 327.769 140.748 327.57 140.881C328.055 141.021 328.25 141.44 328.325 142.055L328.428 142.987C328.433 143.231 328.494 143.47 328.605 143.687L327.673 143.826ZM326.107 138.915L326.312 140.713H326.666C327.011 140.713 327.207 140.499 327.151 140.033L327.085 139.455C327.039 139.036 326.88 138.868 326.554 138.905L326.107 138.915Z" fill="#263238"/>
<path d="M329.658 140.173L330.925 140.033L331.018 140.872L329.751 141.012L329.937 142.726L331.531 142.549L331.624 143.388L329.117 143.668L328.455 137.805L330.972 137.526L331.065 138.365L329.471 138.542L329.658 140.173Z" fill="#263238"/>
<path d="M333.945 141.412L334.103 137.181L335.39 137.041L336.042 142.904L335.166 143.006L334.7 138.793L334.588 143.062L333.712 143.164L332.584 139.092L333.05 143.239L332.239 143.323L331.587 137.461L332.873 137.321L333.945 141.412Z" fill="#263238"/>
<path d="M337.272 139.325L338.53 139.185L338.624 140.024L337.365 140.163L337.552 141.878L339.145 141.701L339.239 142.54L336.722 142.82L336.07 136.957L338.586 136.678L338.679 137.517L337.086 137.694L337.272 139.325Z" fill="#263238"/>
<path d="M340.18 138.132L340.655 142.382L339.826 142.466L339.173 136.603L340.329 136.473L341.653 139.884L341.261 136.37L342.081 136.277L342.734 142.139L341.802 142.251L340.18 138.132Z" fill="#263238"/>
<path d="M342.463 136.24L345.315 135.923L345.409 136.762L344.477 136.873L345.036 141.897L344.104 142L343.545 136.976L342.613 137.079L342.463 136.24Z" fill="#263238"/>
<path d="M346.946 135.681C347.878 135.578 348.363 136.063 348.466 137.004V137.181L347.599 137.284V137.041C347.552 136.622 347.366 136.482 347.068 136.51C346.769 136.538 346.629 136.724 346.676 137.144C346.723 137.563 346.946 137.861 347.608 138.327C347.933 138.498 348.212 138.743 348.423 139.043C348.633 139.343 348.77 139.688 348.82 140.052C348.869 140.237 348.875 140.431 348.839 140.619C348.804 140.808 348.726 140.986 348.613 141.14C348.499 141.295 348.353 141.422 348.184 141.513C348.015 141.603 347.828 141.655 347.636 141.664C347.445 141.699 347.248 141.69 347.06 141.639C346.873 141.588 346.699 141.496 346.551 141.369C346.404 141.242 346.287 141.084 346.208 140.906C346.13 140.728 346.092 140.535 346.098 140.341V139.977L346.974 139.884L347.021 140.303C347.067 140.723 347.263 140.853 347.561 140.816C347.86 140.779 348.018 140.611 347.972 140.191C347.925 139.772 347.701 139.464 347.04 139.008C346.715 138.838 346.436 138.592 346.225 138.292C346.014 137.993 345.878 137.647 345.828 137.284C345.642 136.361 346.042 135.774 346.946 135.681Z" fill="#263238"/>
<path d="M117.823 252.292L383.35 222.72" stroke="#263238" stroke-linecap="round" stroke-linejoin="round"/>
<path d="M119.753 248.555C118.564 248.012 117.262 247.759 115.956 247.817C114.65 247.875 113.377 248.243 112.241 248.891C110.277 250.072 108.739 251.848 107.851 253.961C104.747 260.429 96.201 275.238 94.7098 279.488C93.2186 283.738 90.0498 295.491 86.5362 300.579C83.0226 305.668 81.3356 313.152 81.3356 313.152L84.1316 384.17C85.6135 373.788 90.6556 361.802 90.6556 361.802C95.4999 358.917 99.5212 354.834 102.334 349.947C103.18 348.939 103.929 347.853 104.57 346.704C109.734 337.58 111.551 321.596 111.094 309.303C110.619 295.369 114.766 288.799 121.346 276.245C127.926 263.691 124.655 250.978 119.753 248.555Z" fill="white"/>
<path opacity="0.3" d="M119.753 248.555C118.56 248.027 117.261 247.783 115.957 247.841C114.654 247.9 113.382 248.259 112.241 248.89C116.295 249.739 121.654 251.481 120.629 254.604C119.026 259.534 113.07 252.74 110.433 255.209C107.795 257.679 98.4938 271.659 105.241 277.158C111.989 282.657 110.545 292.648 106.341 295.677C102.138 298.706 105.353 305.165 107.357 315.5C108.578 321.754 106.425 336.21 104.561 346.657C109.724 337.533 111.542 321.549 111.085 309.256C110.61 295.323 114.757 288.752 121.337 276.198C127.917 263.644 124.646 250.81 119.753 248.555Z" fill="black"/>
<path d="M84.141 384.124C85.6228 373.751 90.665 361.756 90.665 361.756C95.5105 358.869 99.5345 354.787 102.352 349.901C109.202 341.82 111.588 323.18 111.113 309.256C110.638 295.332 114.841 288.799 121.365 276.189C127.889 263.579 125.177 251.127 119.734 248.555C115.941 246.766 110.945 247.492 107.832 253.961C104.72 260.429 96.1824 275.238 94.6912 279.479C93.2 283.719 90.0312 295.49 86.5176 300.589C83.0039 305.687 81.3356 313.152 81.3356 313.152" stroke="#263238" stroke-linecap="round" stroke-linejoin="round"/>
<path d="M100.656 280.383C100.656 280.383 106.369 280.56 109.044 282.545" stroke="#263238" stroke-linecap="round" stroke-linejoin="round"/>
<path d="M79.1641 311.791C79.1641 311.791 77.9059 309.182 83.5538 306.255" stroke="#263238" stroke-linecap="round" stroke-linejoin="round"/>
<path opacity="0.2" d="M279.227 258.593C290.616 258.686 304.867 310.02 309.303 315.929C309.303 315.929 372.912 318.119 380.927 326.992C388.942 335.865 384.972 343.358 390.247 351.774C395.522 360.19 397.032 374.375 397.032 374.375L411.012 397.964L351.094 426.669C351.094 426.669 319.08 408.328 311.269 404.19C303.459 400.051 280.318 391.011 274.166 379.324C268.015 367.637 267.708 356.667 266.384 351.811C265.061 346.955 290.784 332.416 290.784 332.416L279.227 258.593Z" fill="black" fill-opacity="0.7"/>
<path d="M418.99 402.624C413.827 397.852 408.402 392.782 403.938 388.588C398.244 383.238 394.115 379.333 394.115 379.333C390.722 372.213 387.74 369.817 383.984 364.197C380.228 358.577 380.806 352.65 379.92 344.802C379.035 336.955 375.857 330.198 373.909 325.575C371.961 320.953 371.803 316.171 371.411 315.137C371.02 314.102 365.12 309.545 362.39 305.817C361.165 304.155 359.668 302.712 357.963 301.548C356.055 300.195 353.86 299.299 351.55 298.929C350.593 298.801 349.623 298.782 348.661 298.874C346.763 299.176 344.893 299.634 343.069 300.244C340.665 300.821 334.588 297.886 331.084 298.025C330.431 298.025 329.788 298.119 329.136 298.212C326.12 298.775 323.153 299.576 320.263 300.607C317.104 301.539 312.593 299.47 309.331 299.228H309.266C308.54 299.149 307.805 299.241 307.122 299.498C304.037 300.793 298.138 302.769 298.138 302.769C298.138 302.769 296.618 298.752 294.997 293.188C294.717 292.256 294.428 291.324 294.121 290.392C292.984 287 291.744 284.008 290.98 281.193C290.777 280.472 290.612 279.741 290.486 279.003C289.796 274.93 288.92 271.827 287.326 265.732L287.159 265.079C286.655 263.215 286.227 261.351 285.751 259.711C284.568 255.759 282.955 253.019 278.845 253.355C275.229 253.653 273.253 255.964 273.151 262.078C273.048 268.192 271.883 268.034 273.495 276.561C275.108 285.089 274.511 290.905 275.807 295.118C277.102 299.33 278.146 307.858 278.146 307.858C276.347 307.439 275.033 308.464 274.921 309.2C274.81 309.936 275.182 316.777 275.369 321.689C275.527 326.051 272.657 330.804 271.939 334.01C271.939 334.01 271.939 334.066 271.939 334.084C271.859 334.43 271.812 334.783 271.799 335.138C271.697 338.269 273.607 344.458 275.527 352.501C277.447 360.544 277.391 369.277 280.709 374.179C281.395 375.167 282.235 376.039 283.198 376.761C287.186 379.827 293.636 381.756 300.244 386.631C308.492 392.735 314.392 397.265 319.275 398.747C322.78 399.828 324.476 400.983 325.51 402.801C325.924 403.598 326.237 404.443 326.442 405.317C326.908 407.004 328.148 408.113 330.226 409.884C333.478 412.602 336.475 415.609 339.183 418.869C341.718 421.888 345.912 427.797 350.367 434.368L418.99 402.624Z" fill="white"/>
<path opacity="0.3" d="M290.448 278.975C290.575 279.714 290.74 280.445 290.942 281.166C285.593 281.427 276.319 286.31 276.888 289.358C277.596 293.086 279.227 301.893 281.548 303.468C283.869 305.043 288.23 305.388 288.23 305.388C287.941 305.48 287.658 305.589 287.382 305.715L287.289 305.761C286.074 306.343 285.064 307.279 284.39 308.445C281.445 313.394 283.403 322.332 285.714 326.302C295.323 342.817 290.01 358.978 286.534 357.99C283.058 357.002 279.134 341.783 279.209 337.971C279.27 335.74 279.028 333.511 278.491 331.345C277.018 331.214 274.306 332.565 271.864 334.01C271.864 334.01 271.864 333.963 271.864 333.935C272.582 330.729 275.453 325.976 275.294 321.614C275.108 316.703 274.726 309.862 274.847 309.126C274.968 308.389 276.273 307.364 278.071 307.784C278.071 307.784 277.018 299.265 275.732 295.043C274.446 290.821 275.033 285.024 273.421 276.487C271.808 267.95 272.973 268.099 273.076 262.004C273.179 255.908 275.154 253.616 278.77 253.28C282.899 252.945 284.493 255.685 285.677 259.636C285.118 259.321 284.539 259.044 283.943 258.807C282.45 258.13 280.756 258.04 279.199 258.555C277.41 259.254 276.235 261.491 275.686 263.7C274.884 266.878 275.378 270.01 277.205 268.472C279.274 266.738 284.213 265.965 287.261 265.676C288.92 271.799 289.759 274.94 290.448 278.975Z" fill="black"/>
<path opacity="0.3" d="M326.433 405.336C326.229 404.465 325.916 403.622 325.501 402.829C324.466 401.012 322.77 399.856 319.266 398.775C314.382 397.256 308.483 392.726 300.234 386.659C293.627 381.785 287.186 379.855 283.188 376.789C287.569 377.963 292.583 375.624 295.034 378.551C298.594 382.773 311.67 387.33 311.67 387.33C325.268 395.597 326.433 405.336 326.433 405.336Z" fill="black"/>
<path opacity="0.3" d="M309.238 299.172C307.877 299.172 306.442 308.762 306.824 311.94C307.858 320.151 317.868 343.861 312.416 344.56C310.17 344.858 304.857 333.935 303.413 328.604C299.041 312.388 298.072 305.444 298.072 305.444C298.072 305.444 294.745 296.683 294.055 290.336C294.363 291.268 294.652 292.2 294.931 293.132C296.553 298.724 298.072 302.713 298.072 302.713C298.072 302.713 303.972 300.738 307.057 299.442C307.752 299.179 308.499 299.087 309.238 299.172Z" fill="black"/>
<path opacity="0.4" d="M329.108 298.24C326.312 299.172 324.122 302.648 321.913 303.701C319.21 304.997 312.453 299.833 309.303 299.256C312.565 299.498 317.076 301.604 320.235 300.635C323.125 299.604 326.092 298.803 329.108 298.24Z" fill="#08A202"/>
<path opacity="0.3" d="M348.643 298.846C347.655 300.949 346.992 303.189 346.676 305.491C346.154 313.45 355.064 340.981 350.236 337.272C343.992 332.454 344.066 310.561 338.679 303.496C336.955 301.232 332.025 298.137 331.084 297.998C334.588 297.858 340.665 300.794 343.069 300.216C344.886 299.608 346.75 299.149 348.643 298.846Z" fill="black"/>
<path opacity="0.3" d="M403.919 388.551C399.157 385.214 394.236 382.12 391.328 381.188C384.189 379.007 381.486 375.596 379.426 369.379C377.367 363.163 379.016 362.911 379.426 356.173C379.837 349.435 374.45 342.491 375.121 344.113C375.792 345.734 375.624 358.093 373.592 359.165C371.56 360.236 368.932 352.594 367.143 346.256C365.353 339.919 361.709 309.321 359.342 303.729C359.012 302.912 358.553 302.154 357.981 301.483C359.687 302.646 361.184 304.09 362.408 305.752C365.139 309.48 371.039 314.019 371.43 315.072C371.821 316.125 371.97 320.887 373.928 325.51C375.885 330.133 379.054 336.881 379.939 344.737C380.825 352.594 380.265 358.522 384.003 364.132C387.74 369.743 390.741 372.147 394.133 379.268C394.096 379.324 398.225 383.201 403.919 388.551Z" fill="black"/>
<path opacity="0.3" d="M326.731 315.51C328.511 316.665 334.094 336.014 336.051 340.674C338.008 345.334 338.269 357.45 336.005 354.281C333.74 351.112 319.471 310.803 326.731 315.51Z" fill="black"/>
<path d="M348.671 431.889C344.849 426.343 341.382 421.516 339.173 418.887C336.466 415.628 333.468 412.62 330.217 409.903C328.139 408.113 326.899 407.023 326.433 405.336C326.229 404.465 325.916 403.622 325.501 402.829C324.466 401.012 322.77 399.856 319.266 398.775C314.382 397.256 308.483 392.726 300.234 386.659C293.627 381.784 287.186 379.855 283.188 376.789C282.226 376.067 281.386 375.196 280.7 374.207C277.41 369.342 277.438 360.553 275.518 352.529C273.598 344.504 271.687 338.297 271.79 335.166C271.803 334.811 271.85 334.458 271.93 334.113C271.93 334.113 271.93 334.066 271.93 334.038C272.647 330.832 275.518 326.079 275.359 321.717C275.173 316.805 274.791 309.964 274.912 309.228C275.033 308.492 276.338 307.467 278.137 307.886C278.137 307.886 277.084 299.368 275.797 295.146C274.511 290.924 275.098 285.127 273.486 276.59C271.874 268.052 273.039 268.202 273.141 262.106C273.244 256.011 275.22 253.718 278.836 253.383C282.965 253.047 284.558 255.787 285.742 259.739C286.236 261.37 286.674 263.206 287.149 265.107L287.317 265.76C288.911 271.855 289.787 274.959 290.476 279.031C290.603 279.77 290.768 280.501 290.97 281.222C291.735 284.018 292.974 287.028 294.111 290.42C294.419 291.352 294.708 292.284 294.987 293.216C296.609 298.808 298.128 302.797 298.128 302.797C298.128 302.797 304.028 300.822 307.113 299.526C307.796 299.269 308.53 299.177 309.256 299.256H309.322C312.584 299.498 317.094 301.604 320.254 300.635C323.144 299.604 326.111 298.804 329.127 298.24V298.24C329.779 298.147 330.422 298.081 331.074 298.054C334.579 297.914 340.655 300.85 343.06 300.272C344.883 299.663 346.753 299.204 348.652 298.902C349.614 298.81 350.583 298.829 351.541 298.958C353.851 299.327 356.045 300.223 357.953 301.576C359.659 302.74 361.156 304.183 362.38 305.845C365.111 309.573 371.011 314.112 371.402 315.165C371.793 316.218 371.943 320.981 373.9 325.603C375.857 330.226 379.026 336.974 379.911 344.831C380.797 352.687 380.237 358.615 383.975 364.226C387.712 369.836 390.713 372.241 394.106 379.361C394.106 379.361 398.234 383.266 403.929 388.616C407.89 392.344 412.606 396.743 417.219 401.021" stroke="#263238" stroke-linecap="round" stroke-linejoin="round"/>
<path d="M278.099 307.821C279.507 313.711 280.718 321.158 280.551 324.41C280.383 327.663 283.421 337.682 282.806 342.361" stroke="#263238" stroke-linecap="round" stroke-linejoin="round"/>
<path d="M282.247 311.735C282.247 311.735 285.239 306.143 288.277 305.388C291.315 304.633 294.801 305.901 298.11 305.491C301.418 305.081 304.186 301.912 307.131 300.607" stroke="#263238" stroke-linecap="round" stroke-linejoin="round"/>
<path d="M279.432 289.712C279.432 289.712 284.474 286.366 287.82 287.699" stroke="#263238" stroke-linecap="round" stroke-linejoin="round"/>
<path d="M283.002 286.124C284.389 285.549 285.929 285.461 287.373 285.872" stroke="#263238" stroke-linecap="round" stroke-linejoin="round"/>
<path d="M278.109 272.144C279.875 271.282 281.81 270.82 283.775 270.792" stroke="#263238" stroke-linecap="round" stroke-linejoin="round"/>
<path d="M271.902 333.973C273.306 332.786 274.827 331.743 276.441 330.86" stroke="#263238" stroke-linecap="round" stroke-linejoin="round"/>
<path d="M282.582 337.207C281.941 338.998 281.485 340.85 281.222 342.734" stroke="#263238" stroke-linecap="round" stroke-linejoin="round"/>
<path d="M274.651 257.707C274.651 257.707 275.425 264.725 276.422 265.163C277.419 265.601 284.167 264.557 284.418 263.253C284.67 261.948 283.58 256.934 283.58 256.934C283.58 256.934 278.006 251.053 274.651 257.707Z" stroke="#263238" stroke-linecap="round" stroke-linejoin="round"/>
<path d="M275.322 321.652C275.322 321.652 280.131 317.579 279.32 313.599C278.51 309.62 276.907 310.039 274.865 310.505" stroke="#263238" stroke-linecap="round" stroke-linejoin="round"/>
<path d="M362.818 310.216C364.496 316.414 367.059 335.045 367.478 337.766C367.898 340.487 369.752 347.291 369.752 347.291" stroke="#263238" stroke-linecap="round" stroke-linejoin="round"/>
<path d="M320.319 305.267C328.26 312.434 321.587 310.589 335.119 350.609" stroke="#263238" stroke-linecap="round" stroke-linejoin="round"/>
<path d="M394.096 379.324C394.096 379.324 387.908 376.528 386.463 374.412" stroke="#263238" stroke-linecap="round" stroke-linejoin="round"/>
<path d="M320.776 394.786C322.957 397.013 325.315 402.465 325.436 402.801" stroke="#263238" stroke-linecap="round" stroke-linejoin="round"/>
</svg>
