<svg width="26" height="26" viewBox="0 0 26 26" fill="none" xmlns="http://www.w3.org/2000/svg">
<path fill-rule="evenodd" clip-rule="evenodd" d="M2.06 0.25C1.06036 0.25 0.25 1.06036 0.25 2.06V23.9399C0.25 24.9396 1.06036 25.7499 2.06 25.7499H23.94C24.9396 25.7499 25.75 24.9396 25.75 23.9399V2.06C25.75 1.06036 24.9396 0.25 23.94 0.25H2.06ZM5.97358 8.16904C7.1953 8.16904 8.1857 7.17864 8.1857 5.95692C8.1857 4.7352 7.1953 3.7448 5.97358 3.7448C4.75186 3.7448 3.76146 4.7352 3.76146 5.95692C3.76146 7.17864 4.75186 8.16904 5.97358 8.16904ZM10.2116 9.80385H13.8778V11.4834C13.8778 11.4834 14.8727 9.49361 17.5796 9.49361C19.9943 9.49361 21.9946 10.6831 21.9946 14.3089V21.9546H18.1954V15.2354C18.1954 13.0965 17.0535 12.8613 16.1833 12.8613C14.3775 12.8613 14.0683 14.4189 14.0683 15.5144V21.9546H10.2116V9.80385ZM7.90194 9.80387H4.04522V21.9546H7.90194V9.80387Z" fill="#1E201F"/>
</svg>
