<svg width="190" height="48" viewBox="0 0 190 48" fill="none" xmlns="http://www.w3.org/2000/svg">
<g clip-path="url(#clip0_29_471)">
<path d="M42.12 8.24803C33.4347 -1.74397 18.24 -2.80797 8.24804 5.88003C-1.74397 14.5654 -2.80797 29.76 5.88003 39.752C14.5654 49.744 29.7627 50.8054 39.7547 42.12C49.7467 33.4347 50.808 18.2374 42.1227 8.24537L42.12 8.24803ZM39.0267 12.6347C32.6267 5.27203 21.76 4.09603 13.9707 9.62937C13.152 10.2107 13.0267 11.3787 13.6827 12.136L17.0507 16.0107C17.6267 16.672 18.6054 16.7867 19.3254 16.2854C25.3387 12.0747 33.6827 13.0027 38.6054 18.6667C39.0934 19.2267 39.5307 19.816 39.9174 20.424C43.6267 26.2667 42.408 33.936 37.2907 38.5974C36.9574 38.9014 36.6107 39.1947 36.2534 39.48C28.096 45.952 15.6187 44.688 8.9067 36.7254C5.24537 32.384 3.78137 26.8934 4.41337 21.6374C4.05337 26.464 5.54403 31.4294 8.9707 35.3707C15.3707 42.7334 26.2374 43.9094 34.0267 38.376C34.8454 37.7947 34.9707 36.6267 34.3147 35.8694L30.9467 31.9947C30.3707 31.3334 29.392 31.2187 28.672 31.72C22.6587 35.9307 14.3147 35.0027 9.39204 29.3387C8.90404 28.7787 8.4667 28.1894 8.08003 27.5814C4.3707 21.7387 5.58937 14.0694 10.7067 9.4107C11.04 9.1067 11.3867 8.81337 11.744 8.52803C19.9014 2.05603 32.376 3.32003 39.0907 11.28C42.752 15.6214 44.2187 21.112 43.584 26.368C43.944 21.5414 42.4534 16.576 39.0267 12.6347V12.6347Z" fill="#08A202"/>
<path d="M72.0133 18.8666C70.9013 17.6986 68.9627 17.184 67.392 17.184C65.424 17.184 63.8267 18.0106 63.8267 19.3786C63.8267 21.2026 65.5653 21.5466 68.1333 21.7733C72.0693 22.1146 75.8053 23.6266 75.8053 28.248C75.8053 32.8693 71.6987 34.6373 67.392 34.664C63.9413 34.6933 60.3467 33.352 58.664 30.5573L61.3173 27.792C62.8587 29.76 65.3947 30.616 67.4213 30.616C69.7893 30.616 71.4133 29.6746 71.4133 28.248C71.4427 26.5653 70.1013 25.7946 67.392 25.568C63.1707 25.168 59.4053 24.112 59.464 19.408C59.4933 15.4426 63.256 13.3333 67.3653 13.3333C70.4453 13.3333 72.7547 14.0186 74.808 16.4133L72.0133 18.8666V18.8666Z" fill="#1E201F"/>
<path d="M83.192 18.0106H77.1173V14.0453H93.688V18.0106H87.6133V34.0106H83.192V18.0106V18.0106Z" fill="#1E201F"/>
<path d="M108.773 30.5867H98.5333L97.0773 34.008H92.2853L101.24 14.0427H106.088L115.043 34.008H110.224L108.771 30.5867H108.773ZM103.669 18.552L100.219 26.6507H107.093L103.672 18.552H103.669Z" fill="#1E201F"/>
<path d="M134.867 34.0106H129.933L124.829 27.4506H121.605V34.0106H117.157V14.0453H126.627C131.445 14.0453 134.013 17.2693 134.013 20.776C133.984 23.3706 133.216 25.6826 129.392 27.0506L134.867 33.6666V34.008V34.0106ZM121.605 17.8693V23.688H126.683C128.736 23.688 129.619 22.1466 129.619 20.8933C129.589 19.5253 128.707 17.8693 126.624 17.8693H121.605Z" fill="#1E201F"/>
<path d="M141.88 18.0106H135.805V14.0453H152.376V18.0106H146.301V34.0106H141.88V18.0106Z" fill="#1E201F"/>
<path d="M167.32 14.0746V26.5653H169.603V30.416H167.32V34.0373H162.957V30.416H152.32L151.949 25.8533L162.901 14.0746H167.323H167.32ZM162.957 26.5653V19.464L156.512 26.5653H162.957Z" fill="#1E201F"/>
<path d="M184.685 25.2827C183.429 26.6507 182.091 27.1067 180.008 27.1067C175.76 27.1067 172.136 24.912 172.136 20.4053C172.136 15.5573 176.299 13.6453 180.549 13.6453C184.8 13.6453 189.019 15.584 189.019 20.4613V27.5067C189.019 32.5253 184.683 34.352 180.464 34.352C176.245 34.352 172.365 32.784 172.165 28.2773H176.328C176.669 29.9307 178.637 30.4747 180.491 30.4747C182.573 30.4747 184.656 29.648 184.683 27.5093V25.2853L184.685 25.2827ZM176.557 20.4053C176.557 22.2587 178.125 23.3413 180.523 23.3413C182.92 23.3413 184.685 22.2853 184.629 20.4053C184.573 18.608 182.891 17.5813 180.552 17.5813C178.213 17.5813 176.56 18.6373 176.56 20.4053H176.557Z" fill="#1E201F"/>
</g>
<defs>
<clipPath id="clip0_29_471">
<rect width="189.021" height="48" fill="white"/>
</clipPath>
</defs>
</svg>
