<svg width="19" height="14" viewBox="0 0 19 14" fill="none" xmlns="http://www.w3.org/2000/svg">
<path fill-rule="evenodd" clip-rule="evenodd" d="M1.51074 2C0.960742 2 0.510742 1.55 0.510742 1C0.510742 0.45 0.960742 0 1.51074 0H17.5107C18.0607 0 18.5107 0.45 18.5107 1C18.5107 1.55 18.0607 2 17.5107 2H1.51074ZM1.51074 8H17.5107C18.0607 8 18.5107 7.55 18.5107 7C18.5107 6.45 18.0607 6 17.5107 6H1.51074C0.960742 6 0.510742 6.45 0.510742 7C0.510742 7.55 0.960742 8 1.51074 8ZM1.51074 14H17.5107C18.0607 14 18.5107 13.55 18.5107 13C18.5107 12.45 18.0607 12 17.5107 12H1.51074C0.960742 12 0.510742 12.45 0.510742 13C0.510742 13.55 0.960742 14 1.51074 14Z" fill="#222222"/>
</svg>
