<svg width="14" height="15" viewBox="0 0 14 15" fill="none" xmlns="http://www.w3.org/2000/svg">
<path d="M13.0688 7.53465C13.0753 7.03274 12.8034 6.57145 12.3619 6.32933L2.07336 0.67651C1.61253 0.416064 1.0693 0.448061 0.635072 0.744578C0.192873 1.04609 -0.0334635 1.76384 0.0901515 2.28224L1.05063 6.30628C1.14923 6.71892 1.51853 7.00946 1.9434 7.00765L7.66895 6.98988C7.96215 6.984 8.19993 7.22179 8.19405 7.51499C8.19316 7.8032 7.95888 8.03748 7.66568 8.04336L1.93468 8.05667C1.50982 8.05749 1.13871 8.34934 1.03754 8.76259L0.0431007 12.8026C-0.0776407 13.28 0.0600179 13.7567 0.396877 14.0935C0.436507 14.1332 0.481092 14.1777 0.525707 14.2124C0.96195 14.5489 1.53327 14.5919 2.02106 14.332L12.3445 8.73446C12.7875 8.49954 13.0622 8.03655 13.0688 7.53465Z" fill="white"/>
</svg>
