<?xml version="1.0" encoding="utf-8"?>
<!-- Generator: Adobe Illustrator 24.0.0, SVG Export Plug-In . SVG Version: 6.00 Build 0)  -->
<svg version="1.1" id="Слой_1" xmlns="http://www.w3.org/2000/svg" xmlns:xlink="http://www.w3.org/1999/xlink" x="0px" y="0px"
	 viewBox="0 0 64 64" width="64px" height="64px" xml:space="preserve">
<style type="text/css">
	.st0{fill:#08A202;}
	.st1{fill:#FFFFFF;}
</style>
<g>
	<path class="st0" viewBox="0 0 64 64" d="M16,0h32c8.8,0,16,7.2,16,16v32c0,8.8-7.2,16-16,16H16C7.2,64,0,56.8,0,48V16C0,7.2,7.2,0,16,0z"/>
</g>
<path class="st1" d="M36.9,20.9c-0.1,0.3-0.1,0.7-0.1,1c0,3,2.4,5.4,5.4,5.4c0.3,0,0.7,0,1-0.1V38c0,4.5-2.7,7.2-7.2,7.2h-9.9
	c-4.5,0-7.2-2.7-7.2-7.2v-9.9c0-4.5,2.7-7.2,7.2-7.2H36.9z M37.2,29c-0.4,0-0.7,0.1-0.9,0.4L33,33.6l-3.7-2.9
	c-0.2-0.2-0.5-0.2-0.8-0.2c-0.3,0-0.5,0.2-0.7,0.4L24,36l-0.1,0.1c-0.2,0.4-0.1,1,0.3,1.3c0.2,0.1,0.4,0.2,0.6,0.2
	c0.3,0,0.6-0.1,0.8-0.4l3.3-4.3l3.8,2.9l0.1,0.1c0.4,0.2,1,0.1,1.3-0.3l3.9-5l-0.1,0c0.2-0.3,0.3-0.7,0.1-1
	C37.9,29.3,37.5,29,37.2,29z M42.5,18.5c1.8,0,3.2,1.4,3.2,3.2c0,1.8-1.4,3.2-3.2,3.2c-1.8,0-3.2-1.4-3.2-3.2
	C39.2,20,40.7,18.5,42.5,18.5z"/>
</svg>
