<svg width="28" height="25" viewBox="0 0 28 25" fill="none" xmlns="http://www.w3.org/2000/svg">
<path fill-rule="evenodd" clip-rule="evenodd" d="M24.6576 6.13319C24.6677 6.39552 24.6711 6.65774 24.6711 6.92007C24.6711 14.8734 19.0764 24.055 8.84548 24.055C5.70273 24.055 2.78043 23.0533 0.318237 21.3482C0.753474 21.3959 1.1955 21.4318 1.6443 21.4318C4.25007 21.4318 6.65008 20.4657 8.55382 18.8441C6.11989 18.8083 4.06467 17.0555 3.35586 14.6707C3.69614 14.7422 4.04656 14.7781 4.40493 14.7781C4.91025 14.7781 5.40088 14.7066 5.87116 14.5635C3.32418 14.015 1.40577 11.5826 1.40577 8.66122C1.40577 8.62545 1.40577 8.61345 1.40577 8.5896C2.15641 9.03079 3.01556 9.3049 3.92787 9.34068C2.43337 8.25559 1.45096 6.40742 1.45096 4.32072C1.45096 3.22372 1.72454 2.18628 2.20613 1.29198C4.94868 4.94072 9.04898 7.33748 13.6715 7.58788C13.5766 7.1467 13.5279 6.68178 13.5279 6.21674C13.5279 2.88995 16.0184 0.195068 19.091 0.195068C20.6907 0.195068 22.1354 0.922537 23.1495 2.09109C24.419 1.82876 25.6083 1.32799 26.6845 0.636396C26.2674 2.04343 25.3867 3.22366 24.2359 3.96294C25.3618 3.81986 26.4358 3.49815 27.4318 3.02119C26.6845 4.22552 25.744 5.28659 24.6576 6.13319Z" fill="#1E201F"/>
</svg>
